<?xml version="1.0" encoding="UTF-8"?><svg id="Layer_1" xmlns="http://www.w3.org/2000/svg" viewBox="0 0 100 86"><defs><style>.cls-1{fill:#ffa489;}</style></defs><path class="cls-1" d="M90.49,56.32H11.17c-2.55,0-4.62-2.07-4.62-4.62V9.32H94.24l-.99,42.74c0,2.07-.69,4.25-2.76,4.25Z"/><g><path class="cls-1" d="M94.18,8.65c1.39,6.17-19.93,17.79-43.46,17.79S6.55,14.57,6.55,8.89c0,0,69.73,0,87.63-.24Z"/><path d="M50.71,28.57c-14.56,0-26.17-4.28-31.79-6.84-3.4-1.54-14.5-7.04-14.5-12.84v-2.13h2.13c.7,0,69.92,0,87.6-.24l1.72-.02,.38,1.68c.39,1.74-.18,3.6-1.71,5.52-2.84,3.56-8.9,7.22-16.62,10.04-8.53,3.12-18.19,4.83-27.2,4.83ZM10.01,11.01c1.71,1.8,5.13,4.33,10.68,6.85,5.31,2.41,16.27,6.45,30.03,6.45,19.25,0,36.17-7.85,40.5-13.27,.06-.08,.12-.16,.18-.23-18.34,.18-67.85,.2-81.39,.21Z"/></g><path d="M94.14,36.76c-2.99,4.38-12.26,16.64-23.63,18.8-21.03,4-11-28.94-10.76-29.41-8.76,1.42-13.44-.02-19.1-.49,1.27,1.18,11.44,33.9-9.59,29.91-12.73-2.42-23.26-17.93-24.87-20.45v19.41c.17,.77,.88,1.95,1.38,2.63,1.77,2.4,5.61,8.49,9,12.08,4.52,4.8,11.31,11.36,34.22,10.77,26.41-.68,31.21-6.21,35.73-11.01,3.38-3.59,5.71-9.44,7.48-11.84,.05-.07,.09-.14,.14-.2v-20.18Z"/></svg>