<?xml version="1.0" encoding="UTF-8"?><svg xmlns="http://www.w3.org/2000/svg" viewBox="0 0 189 190"><defs><style>.cls-boton-1{fill:#f93549;}.cls-boton-2{fill:#f2f2f2;}.cls-boton-3{fill:#03798c;}.cls-boton-4{fill:#e6e6e6;mix-blend-mode:multiply;}.cls-boton-5{fill:#666;mix-blend-mode:screen;}.cls-boton-6{isolation:isolate;}</style></defs><g class="cls-boton-6"><g id="Layer_1"><g><circle class="cls-boton-3" cx="96.52" cy="95.59" r="84.98"/><circle class="cls-boton-2" cx="90.86" cy="89.92" r="84.98"/><circle class="cls-boton-4" cx="96.52" cy="95.59" r="67.98"/><circle class="cls-boton-1" cx="90.86" cy="89.92" r="67.98"/><path class="cls-boton-5" d="M34.21,89.92c-1.19-7.43-.29-15.25,2.26-22.53,2.57-7.28,6.84-14.01,12.35-19.52,5.5-5.51,12.23-9.78,19.51-12.35,7.28-2.55,15.1-3.45,22.53-2.26-7.4,1.19-14.41,3.22-20.82,6.37-6.42,3.12-12.23,7.26-17.22,12.24-4.98,4.98-9.13,10.8-12.25,17.21-3.15,6.41-5.18,13.42-6.36,20.82Z"/></g></g></g></svg>
