<?xml version="1.0" encoding="UTF-8"?><svg xmlns="http://www.w3.org/2000/svg" xmlns:xlink="http://www.w3.org/1999/xlink" viewBox="0 0 254 240"><defs><style>.explosion-cls-1{fill:#02f7f9;}.explosion-cls-2{fill:#ff4a63;}.explosion-cls-3{fill:#fff;}.explosion-cls-4{fill:#64feff;}.explosion-cls-5{fill:#6d6e71;}.explosion-cls-6{filter:url(#drop-shadow-2);}.explosion-cls-7{fill:url(#Super_Soft_Black_Vignette-8);}.explosion-cls-8{fill:url(#Super_Soft_Black_Vignette-7);}.explosion-cls-9{fill:url(#Super_Soft_Black_Vignette-5);}.explosion-cls-10{fill:url(#Super_Soft_Black_Vignette-6);}.explosion-cls-11{fill:url(#Super_Soft_Black_Vignette-4);}.explosion-cls-12{fill:url(#Super_Soft_Black_Vignette-2);}.explosion-cls-13{fill:url(#Super_Soft_Black_Vignette-9);}.explosion-cls-14{fill:url(#Super_Soft_Black_Vignette-3);}.explosion-cls-15{mix-blend-mode:color-dodge;opacity:.1;}.explosion-cls-16{fill:url(#Super_Soft_Black_Vignette);}.explosion-cls-17{isolation:isolate;}.explosion-cls-18{fill:url(#Super_Soft_Black_Vignette-10);}.explosion-cls-19{mix-blend-mode:multiply;opacity:.5;}</style><filter id="drop-shadow-2" filterUnits="userSpaceOnUse"><feOffset dx="7" dy="7"/><feGaussianBlur result="blur" stdDeviation="5"/><feFlood flood-color="#213e5b" flood-opacity=".75"/><feComposite in2="blur" operator="in"/><feComposite in="SourceGraphic"/></filter><radialGradient id="Super_Soft_Black_Vignette" cx="328.39" cy="-79.8" fx="328.39" fy="-79.8" r="12.82" gradientTransform="translate(-85.09 269.37) rotate(-11.59)" gradientUnits="userSpaceOnUse"><stop offset=".57" stop-color="#130c0e"/><stop offset=".8" stop-color="#130c0e"/><stop offset="1" stop-color="#130c0e"/></radialGradient><radialGradient id="Super_Soft_Black_Vignette-2" cx="246.3" cy="-119.98" fx="246.3" fy="-119.98" r="78.57" xlink:href="#Super_Soft_Black_Vignette"/><radialGradient id="Super_Soft_Black_Vignette-3" cx="248.75" cy="-114.98" fx="248.75" fy="-114.98" r="89.8" xlink:href="#Super_Soft_Black_Vignette"/><radialGradient id="Super_Soft_Black_Vignette-4" cx="291.1" cy="-22.1" fx="291.1" fy="-22.1" r="22.38" xlink:href="#Super_Soft_Black_Vignette"/><radialGradient id="Super_Soft_Black_Vignette-5" cx="3456.35" cy="1774.8" fx="3456.35" fy="1774.8" r="17.81" gradientTransform="translate(3767.39 1112.48) rotate(168.95)" xlink:href="#Super_Soft_Black_Vignette"/><radialGradient id="Super_Soft_Black_Vignette-6" cx="168.35" cy="-121.41" fx="168.35" fy="-121.41" r="29.79" xlink:href="#Super_Soft_Black_Vignette"/><radialGradient id="Super_Soft_Black_Vignette-7" cx="214.26" cy="-123.02" fx="214.26" fy="-123.02" r="31.84" xlink:href="#Super_Soft_Black_Vignette"/><radialGradient id="Super_Soft_Black_Vignette-8" cx="254.23" cy="-128.52" fx="254.23" fy="-128.52" r="32.58" xlink:href="#Super_Soft_Black_Vignette"/><radialGradient id="Super_Soft_Black_Vignette-9" cx="294.09" cy="-122.35" fx="294.09" fy="-122.35" r="35.69" xlink:href="#Super_Soft_Black_Vignette"/><radialGradient id="Super_Soft_Black_Vignette-10" cx="329.41" cy="-115.51" fx="329.41" fy="-115.51" r="34.73" xlink:href="#Super_Soft_Black_Vignette"/></defs><g class="explosion-cls-17"><g id="Layer_1"><g class="explosion-cls-6"><g><path class="explosion-cls-3" d="M191.01,53.46c-.07-.22-.11-.44-.19-.66-5.88-17.14-27.77-25.16-48.9-17.91-4.09,1.4-7.83,3.28-11.19,5.49-6.81-4.14-15.23-5.38-23.23-2.64-5.08,1.74-9.29,4.87-12.44,8.83-8.03-3.27-17.12-3.79-25.84-.8-19.6,6.72-29.88,28.58-22.93,48.84,.95,2.8,2.22,5.4,3.69,7.82-7.61,10.06-10.45,22.42-6.53,33.83,5.01,14.6,19.67,23.62,36.59,24.29,9.08,15.46,28.13,22.91,45.84,16.83,5.43-1.86,10.15-4.83,14.07-8.54,6.64,5.61,15.34,7.82,23.41,5.05,9.18-3.15,15.05-11.9,15.9-21.98,2.12,.2,4.28,.25,6.48,.07,19.08-1.49,33.44-16.99,32.05-34.61-.25-3.31-1.05-6.45-2.3-9.37,11.27-9.9,16.64-23.11,12.62-34.81-4.52-13.18-19.61-20.58-37.12-19.77Z"/><g class="explosion-cls-15"><path class="explosion-cls-2" d="M213.21,128.11l-12.8-4.2c-10.48,10.93-37.89,5.25-55.53,.42-.41-.11,11.08,23.05,29.12,24.73,4.29,.4,14.5,.74,20.22-1.69,9.45-4.02,16.98-10.16,18.9-19.1,0,0,.04-.06,.1-.17Z"/></g><g><path class="explosion-cls-16" d="M229.21,117.09c-.9-1.38-2.04-2.62-3.37-3.69-1.1-.88-2.83-2-4.76-2.27-.86-.12-1.8-.09-2.78,.12-.64,.13-1.3,.33-1.95,.59-1.49,.59-2.77,1.46-3.83,2.58-.99,1.05-1.83,2.31-2.5,3.76-.67,1.45-.99,3.12-.98,5.11,.01,2.11,.27,3.86,.78,5.36,.54,1.57,1.3,3.11,2.28,4.58,1.02,1.54,2.19,2.79,3.46,3.72,1.35,.98,2.75,1.65,4.17,2,1.38,.34,2.74,.37,4.04,.11,.33-.07,.65-.15,.97-.26,1.42-.48,2.71-1.27,3.84-2.35,1.16-1.11,2.03-2.57,2.61-4.34,.48-1.47,.75-3.12,.83-5.04,.08-1.85-.14-3.64-.65-5.32-.54-1.74-1.26-3.31-2.15-4.66Z"/><path class="explosion-cls-12" d="M222.21,46.63c-7.95,.73-11.83,1.13-19.76,2l-2.63,.29,.45,2.61c1.7,9.99,3.53,20.39,5,28.75,.49,2.77,1.26,6.23,2.01,9.62-2.13-3.35-6.36-6.95-14.63-5.79-.64,.09-1.3,.2-1.97,.34-2.03,.42-4.23,1.06-6.55,1.91-1.33,.49-2.52,.84-3.54,1.05-.24,.05-.47,.09-.7,.12-1.43,.21-2.17,.09-2.42,0-.55-1.1-.49-2.66,.16-4.11,.96-2.15,2.48-3.58,4.17-3.93l.13-.02c.86-.15,1.59,1.55,1.95,2.58l1.02,2.9,2.63-1.6c2.75-1.67,4.13-2.5,6.95-4.17,1.16-.72,2.38-1.41,3.45-2.03,2.83-1.6,4-2.27,4.48-3.48,.63-1.56,.05-3.45-1.52-7.71-.33-.89-.64-1.73-.83-2.35-2.65-8.41-9.07-16.13-17.44-14.41-.39,.08-.78,.18-1.16,.3-10,3.06-15.2,12.72-19.32,20.79-1.85-4.81-4.51-8.47-7.99-10.9-4.45-3.12-10.34-4.09-17.01-2.81l-.57,.11c-4.66,.96-23.45,6.44-25.01,11.38-.44,1.39-.1,3.61,1.1,7.67-4.86-2.7-9.97-3.52-15.25-2.43-.66,.13-1.33,.3-1.99,.5-8.42,2.48-15.01,9.4-17.65,18.5-.34,1.18-.63,2.37-.87,3.56-1.43-1.42-3.02-2.75-4.78-3.96-5.88-4.04-12.15-5.42-18.62-4.09-1.07,.22-2.16,.52-3.24,.89-8.18,2.8-14.57,9.47-17.11,17.84-2.09,6.9-2.13,13.75-.11,20.36,1.18,3.87,2.94,7.39,5.24,10.45,2.15,2.87,4.97,5.45,8.37,7.67,7.03,4.59,14.19,6.28,21.3,5.03,.2-.03,.39-.07,.59-.11,7.83-1.61,14.27-7.53,16.81-15.46,.3-.93,.56-1.86,.79-2.79,1.37,1.53,2.9,2.97,4.57,4.33,7.02,5.7,14.21,8.11,21.37,7.16,.47-.06,.92-.14,1.37-.23,6.23-1.28,11.44-5.47,14.56-11.54,.22,1.04,.46,2.08,.67,3.12l.52,2.53,2.51-.61c6.4-1.55,9.51-2.28,15.88-3.71l2.66-.6-.83-2.6c-.47-1.46-.95-2.95-1.44-4.44-1.49-4.56-3.47-10.64-3.76-12.86,.75-.47,2.15-1.18,3.23-1.74,3.2-1.64,7.19-3.68,9.43-6.08,.33-.36,.65-.72,.96-1.08,1.41,2.64,3.75,4.74,6.9,6.15,1.65,.74,4.33,1.53,7.69,1.1,.32-.04,.65-.1,1-.17,1.95-.4,4.33-1.26,7.54-2.51,2.49-.97,4.47-1.48,5.69-1.73,.59-.12,1.15-.21,1.64-.27,2.26-.27,2.48,.4,2.55,.62,.13,.4-.5,1.25-1.56,2.12-1.13,.91-2.74,1.67-4.16,2.34l-.84,.39c-.7,.34-1.43,.68-1.98,.79-.06,.01-.11,.02-.17,.03-.95,.1-3.34-.67-4.62-1.08-1.69-.54-2.54-.81-3.45-.63l-.42,.09-.33,.18c-1.04,.57-1.29,1.6-1.41,2.1-.19,.78-2.74,17.31-.88,20.08,2.37,3.53,13.67,3.15,13.78,3.14,.92-.06,1.84-.18,2.73-.37,3.32-.68,6.42-2.22,9.2-4.57,6.1-5.16,10.62-12.19,12.72-19.79,.31-1.11,.54-2.19,.75-3.25,.72,1.04,1.83,1.04,2.74,1.04,1.46,0,5.33-.03,11.61,0l2.62,.02-.11-2.62c-.78-19.07-1.5-38.42-2.15-57.53l-.09-2.65-2.64,.24ZM99.88,116.76c-.64-1.02-1.53-2.55-1.88-4.07-.71-3.12-.88-6.71-.49-10.67,.39-3.98,1.58-6.25,3.54-6.76l.16-.04c1.59-.33,3.33,.77,5.19,3.27,2.31,3.1,3.98,6.65,4.97,10.54,.86,3.4,1.01,6.25,.46,8.48-.53,2.15-1.71,3.3-3.82,3.74l-.16,.03c-1.65,.3-3.15,.06-4.58-.73-1.02-.57-2.16-1.85-3.38-3.79Zm39.43-39.64c.81-.17,1.54-.19,2.17-.06,1.36,.26,2.8,1,3.13,4.47,.23,2.48-.15,4.55-1.15,6.15-1.06,1.7-2.48,2.93-4.32,3.71-1.25-4.76-2.1-7.97-3.4-12.88,1.3-.7,2.5-1.17,3.57-1.39Zm-76.25,53.19c-1.59,.33-3.1,.19-4.47-.4-.68-.29-1.81-1.06-3.31-3.06-.62-.83-1.49-2.08-1.83-3.32-.73-2.66-.93-5.79-.61-9.3,.49-5.29,2.73-5.98,3.46-6.2,.12-.04,.23-.07,.35-.09,1.56-.32,3.25,.53,5.04,2.52,2.3,2.56,3.98,5.57,5,8.92,.88,2.89,1.08,5.35,.58,7.29-.49,1.94-1.76,3.08-4,3.59l-.21,.05Z"/><g class="explosion-cls-19"><path class="explosion-cls-5" d="M226.15,49.22c-7.95,.73-11.83,1.13-19.76,2l-2.63,.29,.45,2.61c1.7,9.99,3.53,20.39,5,28.75,.49,2.77,1.26,6.23,2.01,9.62-2.13-3.35-6.36-6.95-14.63-5.79-.64,.09-1.3,.2-1.97,.34-2.03,.42-4.23,1.06-6.55,1.91-1.33,.49-2.52,.84-3.54,1.05-.24,.05-.47,.09-.7,.12-1.43,.21-2.17,.09-2.42,0-.55-1.1-.49-2.66,.16-4.11,.96-2.15,2.48-3.58,4.17-3.93l.13-.02c.86-.15,1.59,1.55,1.95,2.58l1.02,2.9,2.63-1.6c2.75-1.67,4.13-2.5,6.95-4.17,1.16-.72,2.38-1.41,3.45-2.03,2.83-1.6,4-2.27,4.48-3.48,.63-1.56,.05-3.45-1.52-7.71-.33-.89-.64-1.73-.83-2.35-2.65-8.41-9.07-16.13-17.44-14.41-.39,.08-.78,.18-1.16,.3-10,3.06-15.2,12.72-19.32,20.79-1.85-4.81-4.51-8.47-7.99-10.9-4.45-3.12-10.34-4.09-17.01-2.81l-.57,.11c-4.66,.96-23.45,6.44-25.01,11.38-.44,1.39-.1,3.61,1.1,7.67-4.86-2.7-9.97-3.52-15.25-2.43-.66,.13-1.33,.3-1.99,.5-8.42,2.48-15.01,9.4-17.65,18.5-.34,1.18-.63,2.37-.87,3.56-1.43-1.42-3.02-2.75-4.78-3.96-5.88-4.04-12.15-5.42-18.62-4.09-1.07,.22-2.16,.52-3.24,.89-8.18,2.8-14.57,9.47-17.11,17.84-2.09,6.9-2.13,13.75-.11,20.36,1.18,3.87,2.94,7.39,5.24,10.45,2.15,2.87,4.97,5.45,8.37,7.67,7.03,4.59,14.19,6.28,21.3,5.03,.2-.03,.39-.07,.59-.11,7.83-1.61,14.27-7.53,16.81-15.46,.3-.93,.56-1.86,.79-2.79,1.37,1.53,2.9,2.97,4.57,4.33,7.02,5.7,14.21,8.11,21.37,7.16,.47-.06,.92-.14,1.38-.23,6.23-1.28,11.44-5.47,14.56-11.54,.22,1.04,.46,2.08,.67,3.12l.52,2.53,2.51-.61c6.4-1.55,9.51-2.28,15.88-3.71l2.66-.6-.83-2.6c-.47-1.46-.95-2.95-1.44-4.44-1.49-4.56-3.47-10.64-3.76-12.86,.75-.47,2.15-1.18,3.23-1.74,3.2-1.64,7.19-3.68,9.43-6.08,.33-.36,.65-.72,.96-1.08,1.41,2.64,3.75,4.74,6.9,6.15,1.65,.74,4.33,1.53,7.69,1.1,.32-.04,.65-.1,1-.17,1.95-.4,4.33-1.26,7.54-2.51,2.49-.97,4.47-1.48,5.69-1.73,.59-.12,1.15-.21,1.64-.27,2.26-.27,2.48,.4,2.55,.62,.13,.4-.5,1.26-1.56,2.12-1.13,.91-2.74,1.67-4.16,2.34l-.84,.39c-.7,.34-1.43,.68-1.98,.79-.06,.01-.11,.02-.17,.03-.95,.1-3.34-.67-4.62-1.08-1.69-.54-2.54-.81-3.45-.63l-.42,.09-.33,.18c-1.04,.57-1.29,1.6-1.41,2.1-.19,.78-2.74,17.31-.88,20.08,2.37,3.53,13.67,3.15,13.78,3.14,.92-.06,1.84-.18,2.73-.37,3.32-.68,6.42-2.22,9.2-4.57,6.1-5.16,10.62-12.19,12.72-19.79,.31-1.11,.54-2.19,.75-3.25,.72,1.04,1.83,1.04,2.74,1.04,1.46,0,5.33-.03,11.61,0l2.62,.02-.11-2.62c-.78-19.07-1.5-38.42-2.15-57.53l-.09-2.65-2.64,.24ZM103.81,119.35c-.64-1.02-1.53-2.55-1.88-4.07-.71-3.12-.88-6.71-.49-10.67,.39-3.98,1.58-6.25,3.54-6.76l.16-.04c1.59-.33,3.33,.77,5.19,3.27,2.31,3.1,3.98,6.65,4.97,10.54,.86,3.4,1.01,6.25,.46,8.48-.53,2.15-1.71,3.3-3.82,3.74l-.16,.03c-1.65,.3-3.15,.06-4.58-.73-1.02-.57-2.16-1.85-3.38-3.79Zm39.43-39.64c.81-.17,1.54-.19,2.17-.06,1.36,.26,2.8,1,3.13,4.47,.23,2.48-.15,4.55-1.15,6.15-1.06,1.7-2.48,2.93-4.32,3.71-1.25-4.76-2.1-7.97-3.4-12.88,1.3-.7,2.5-1.17,3.57-1.39Zm-76.25,53.19c-1.59,.33-3.1,.19-4.47-.4-.68-.29-1.81-1.06-3.31-3.06-.62-.83-1.49-2.08-1.83-3.32-.73-2.66-.93-5.79-.61-9.3,.49-5.29,2.73-5.98,3.46-6.2,.12-.04,.23-.07,.35-.09,1.56-.32,3.25,.53,5.04,2.52,2.3,2.56,3.98,5.57,5,8.92,.88,2.89,1.08,5.35,.58,7.29-.49,1.94-1.76,3.08-4,3.59l-.21,.05Z"/></g></g><path class="explosion-cls-14" d="M231.51,73.63c-1.12-3.25-2.84-6.29-5.09-8.99-6.44-9.35-18.99-14.86-33.61-14.78-1.06-2.22-2.42-4.34-4.02-6.26-8.14-11.74-24.87-17.32-41.63-13.88-2.16,.44-4.32,1.03-6.43,1.76-3.69,1.27-7.23,2.95-10.52,5-6.25-3.42-13.45-4.54-20.3-3.13-1.21,.25-2.43,.58-3.6,.98-4.74,1.63-9.02,4.49-12.39,8.3-5.77-2.07-11.87-2.41-18.64-1.02-2.1,.43-4.31,1.04-6.56,1.81-8.7,2.98-15.73,8.51-20.33,15.95-7.75,10.95-9.35,20.76-5.7,35,.59,2.29,2.02,6.3,3.14,8.46-7.76,11.48-10.23,25.41-6.46,36.4,5.49,16.01,19.4,26.77,36.31,28.13,9.27,14.06,28.1,21.32,45.87,17.68,1.8-.37,3.58-.85,5.29-1.44,4.84-1.66,9.24-4.94,12.94-7.98,6.45,4.36,14.23,6.02,21.38,4.55,1.06-.22,2.12-.51,3.14-.85,10.05-3.45,17.16-11.26,19.1-20.93,1.03,0,3.99-.09,7.47-.8h0c1.91-.39,3.71-.92,5.32-1.56,16.31-6.49,26.43-21.46,25.19-37.25-.21-2.7-.74-5.37-1.6-7.96,11.32-11.01,15.81-25.24,11.72-37.19Zm-16.39,34.57c1.26,2.94,2.03,6.05,2.27,9.24,1.23,15.69-10.41,30.09-27.07,33.51-1.51,.31-3.05,.53-4.6,.65-2.1,.16-4.2,.14-6.41-.07l-.42-.04-.04,.42c-.87,10.33-6.86,18.61-15.62,21.62-.87,.3-1.77,.55-2.68,.73-6.95,1.42-14.36-.66-20.33-5.71-.03-.03-3.1-2.7-3.75-6.61l-.31-1.86-.5,1.82c-.03,.09-.63,2.32-.31,4.69,.19,1.35,.67,2.84,1.44,4.44-3.35,2.61-7.06,4.61-11.03,5.98-1.57,.54-3.19,.98-4.8,1.31-16.01,3.28-32.3-3.94-40.54-17.96l-.12-.2h-.23c-17.23-.7-31.45-10.12-36.22-24.02-3.74-10.88-1.38-23.07,6.46-33.45l.17-.23-.15-.24c-1.53-2.51-2.76-5.12-3.65-7.74-6.86-20,3.31-41.67,22.67-48.31,1.46-.5,2.97-.91,4.47-1.22,7.02-1.44,14.31-.74,21.07,2.01,.03,.01,2.73,1.16,4.38,3.39l.28,.37,.34-.32c.06-.05,.56-.55,.54-1.53-.03-1.33-.98-2.85-2.83-4.52,2.88-2.83,6.25-4.92,10.02-6.21,1.08-.37,2.2-.68,3.31-.9,6.66-1.36,13.6-.12,19.56,3.5l.23,.14,.22-.15c3.45-2.27,7.18-4.11,11.09-5.45,2.01-.69,4.07-1.25,6.13-1.68,17.95-3.68,35.25,3.49,41.35,17.06-1.81,.67-3.57,1.6-5.24,2.77l-1.18,.83,7.91-.4c17.96-.83,32.37,6.82,36.71,19.49,3.8,11.07-.99,24.24-12.51,34.36l-.23,.2,.12,.28Z"/></g><g><path class="explosion-cls-11" d="M199.96,210.08c-3.63,.74-7.13-.26-9.73-2.67-.64,.2-1.34,.39-2.09,.54-6.39,1.31-11.51-1.1-13.7-6.45-1.12-2.73-1.12-5.53,0-8.11,1.09-2.52,3.09-4.39,4.93-5.67-.48-1.9-.47-4,.09-6,1.18-4.22,4.54-7.29,9-8.2,1.64-.34,3.43-.39,5.33-.16,1.59-3.09,4.39-6.36,8.67-7.24,2.11-.43,4.35-.25,6.66,.55,4,1.38,6.66,4.28,7.48,8.16,.55,2.59,.2,5.45-.86,7.94,2.26,2.13,4.08,5.3,3.42,9.46-.78,4.92-4.08,8.21-9.3,9.28-.39,.08-.79,.15-1.21,.21-.25,1.12-.68,2.34-1.38,3.49-1.46,2.41-4.2,4.23-7.32,4.87h0Z"/><path class="explosion-cls-3" d="M203.36,197.54s.3,3-1.1,5.3c-1.9,3.13-8.75,5.3-12.19-.63,0,0-10.08,5.21-13.24-2.5-2.83-6.91,6.61-10.49,6.61-10.49-3.87-3.57-1.73-15.06,11.49-11.29,0,0,2.54-10.57,11.38-7.52,7.02,2.42,5.36,10.43,2.27,13.3,0,0,5.84,2.47,5.01,7.67-.82,5.2-5.49,6.28-10.23,6.17Z"/></g><g><path class="explosion-cls-9" d="M31.67,16.44c2.9-.57,5.67,.26,7.73,2.2,.51-.15,1.07-.3,1.66-.42,5.09-.99,9.15,.96,10.86,5.24,.87,2.18,.85,4.41-.06,6.45-.89,2-2.49,3.47-3.96,4.48,.36,1.52,.34,3.19-.12,4.78-.97,3.35-3.67,5.77-7.22,6.46-1.31,.26-2.73,.29-4.25,.09-1.29,2.45-3.54,5.03-6.96,5.69-1.68,.33-3.46,.16-5.3-.49-3.18-1.13-5.27-3.45-5.89-6.55-.42-2.07-.12-4.34,.74-6.31-1.78-1.71-3.21-4.25-2.65-7.55,.66-3.91,3.31-6.51,7.47-7.32,.31-.06,.63-.11,.96-.15,.21-.89,.56-1.86,1.12-2.77,1.18-1.91,3.37-3.33,5.86-3.82h0Z"/><path class="explosion-cls-3" d="M28.87,26.4s-.21-2.39,.92-4.21c1.53-2.47,7-4.15,9.69,.59,0,0,8.06-4.07,10.51,2.09,2.2,5.52-5.34,8.3-5.34,8.3,3.05,2.87,1.27,12-9.23,8.9,0,0-2.1,8.39-9.11,5.9-5.57-1.98-4.19-8.34-1.71-10.6,0,0-4.63-2.01-3.93-6.14,.69-4.13,4.42-4.95,8.19-4.84Z"/></g><g><path class="explosion-cls-10" d="M64.62,147.34c-.2,.04-.39,.08-.59,.11-7.11,1.25-14.27-.44-21.3-5.03-3.41-2.22-6.22-4.8-8.37-7.67-2.3-3.06-4.06-6.58-5.24-10.45-2.02-6.61-1.98-13.46,.11-20.36,2.54-8.37,8.93-15.04,17.11-17.84,1.08-.37,2.17-.67,3.24-.89,6.47-1.33,12.74,.05,18.62,4.09,3.74,2.57,6.73,5.62,8.9,9.08,2.12,3.38,3.79,7.29,4.96,11.63,1.93,7.13,1.71,14.48-.64,21.86-2.53,7.93-8.97,13.85-16.81,15.46Zm-11.9-42c-.12,.02-.23,.05-.35,.09-.74,.23-2.97,.91-3.46,6.2-.33,3.51-.12,6.64,.61,9.3,.34,1.24,1.21,2.49,1.83,3.32,1.5,2,2.63,2.76,3.31,3.06,1.37,.59,2.88,.72,4.47,.4l.21-.05c2.23-.51,3.5-1.65,4-3.59,.5-1.95,.3-4.4-.58-7.29-1.02-3.36-2.7-6.36-5-8.92-1.78-1.99-3.48-2.84-5.04-2.52Z"/><path class="explosion-cls-1" d="M31.62,104.67c2.29-7.57,8.02-13.62,15.53-16.2,6.74-2.31,13.35-1.42,19.64,2.9,3.49,2.4,6.22,5.19,8.2,8.35,1.99,3.17,3.56,6.84,4.67,10.95,1.88,6.96,1.47,13.91-.61,20.44-2.25,7.06-8.04,12.57-15.45,13.87-6.73,1.19-13.32-.63-19.5-4.66-2.74-1.79-5.52-4.12-7.74-7.08-2.15-2.86-3.77-6.15-4.85-9.68-1.9-6.23-1.8-12.58,.11-18.9Zm28,1.52c-2.62-2.92-5.32-3.97-7.98-3.15-3.09,.95-4.8,3.8-5.22,8.36-.32,3.46-.19,7,.69,10.19,.42,1.54,1.36,2.98,2.24,4.16,1.29,1.72,2.74,3.17,4.32,3.85,1.87,.8,3.95,1.01,6.22,.49,3.13-.72,5.13-2.53,5.86-5.41,.62-2.41,.39-5.34-.61-8.64-1.11-3.64-2.95-6.98-5.53-9.86Z"/><path class="explosion-cls-8" d="M109.53,140.34c-.45,.09-.91,.17-1.37,.23-7.16,.95-14.35-1.46-21.37-7.16-3.36-2.73-6.12-5.81-8.23-9.17-2.24-3.57-3.94-7.6-5.07-11.99-1.92-7.46-1.79-15.04,.37-22.54,2.63-9.1,9.23-16.02,17.65-18.5,.66-.19,1.33-.36,1.99-.5,7.08-1.45,13.84,.51,20.1,5.82,3.68,3.12,6.6,6.71,8.68,10.66,2.02,3.83,3.6,8.25,4.69,13.14,1.75,7.78,1.38,16.09-1.07,24.02-2.6,8.44-8.72,14.41-16.37,15.98Zm-12.41-47.68c-1.96,.51-3.15,2.78-3.54,6.76-.39,3.97-.22,7.56,.49,10.67,.35,1.51,1.24,3.05,1.88,4.07,1.22,1.95,2.36,3.22,3.38,3.79,1.43,.79,2.92,1.03,4.58,.73l.16-.03c2.11-.43,3.29-1.58,3.82-3.74,.55-2.23,.4-5.08-.46-8.48-.99-3.9-2.66-7.45-4.97-10.54-1.86-2.49-3.6-3.59-5.19-3.27l-.16,.04Z"/><path class="explosion-cls-1" d="M76.26,90.41c2.27-7.84,7.97-14.44,15.95-16.79,6.86-2.02,13.51-.47,19.76,4.83,3.46,2.94,6.16,6.26,8.09,9.92,1.94,3.68,3.42,7.86,4.46,12.52,1.69,7.52,1.22,15.5-1.02,22.74-2.24,7.28-7.83,13.43-15.68,14.47-6.76,.9-13.29-1.61-19.47-6.63-2.72-2.21-5.49-5.06-7.69-8.56-2.13-3.4-3.72-7.22-4.77-11.28-1.85-7.17-1.65-14.3,.35-21.22Zm28.21,3.99c-2.58-3.47-5.28-4.85-7.98-4.15-3.13,.81-4.9,3.86-5.4,8.93-.38,3.85-.3,7.81,.54,11.48,.41,1.77,1.32,3.44,2.2,4.84,1.28,2.05,2.71,3.77,4.28,4.65,1.86,1.04,3.95,1.42,6.24,1.01,3.15-.58,5.18-2.46,5.96-5.62,.66-2.66,.49-5.94-.46-9.7-1.05-4.15-2.84-8-5.38-11.42Z"/><path class="explosion-cls-7" d="M124.76,131.92c-2.02-9.83-4.48-19.77-6.86-29.38l-.72-2.91c-1.1-4.46-3.09-10.3-5.01-15.94-3.87-11.39-5.27-15.91-4.54-18.21,1.56-4.94,20.35-10.42,25.01-11.38l.57-.11c6.67-1.28,12.55-.3,17.01,2.81,4.71,3.3,7.96,8.84,9.65,16.48,1.35,6.1,1.33,11.95-.06,16.89-1.14,4.04-3.51,8.07-6.86,11.65-2.24,2.4-6.23,4.44-9.43,6.08-1.08,.55-2.48,1.27-3.23,1.74,.29,2.22,2.28,8.3,3.76,12.86,.48,1.48,.97,2.98,1.44,4.44l.83,2.6-2.66,.6c-6.36,1.43-9.48,2.16-15.88,3.71l-2.51,.61-.52-2.53Zm7.05-56.01c1.3,4.91,2.15,8.12,3.4,12.88,1.84-.78,3.26-2.01,4.32-3.71,1-1.61,1.38-3.68,1.15-6.15-.33-3.46-1.77-4.2-3.13-4.47-.63-.12-1.36-.1-2.17,.06-1.07,.22-2.27,.69-3.57,1.39Z"/><path class="explosion-cls-1" d="M119.61,99.04c-2.69-10.9-10.54-29.82-9.59-32.8,.83-2.64,15.35-8.2,23.67-9.79,6.21-1.19,11.35-.22,15.11,2.41,4.09,2.86,7.07,7.86,8.64,14.97,1.23,5.55,1.31,10.95-.03,15.67-1.11,3.93-3.4,7.54-6.28,10.63-3.4,3.63-12.35,6.81-13.24,8.32-.81,1.38,2.57,10.92,5.23,19.26-6.38,1.44-9.56,2.18-15.92,3.72-2.23-10.86-4.94-21.63-7.6-32.38Zm13.84-7.1c3.7-.78,6.41-2.67,8.19-5.54,1.31-2.12,1.79-4.76,1.51-7.71-.35-3.76-2.02-6.08-5.14-6.68-2.45-.48-5.51,.41-9.12,2.72,1.83,6.88,2.74,10.33,4.55,17.21Z"/><path class="explosion-cls-13" d="M183.63,133.14c-.89,.18-1.8,.31-2.73,.37-.11,0-11.4,.38-13.78-3.14-1.87-2.77,.69-19.3,.88-20.08,.12-.5,.37-1.52,1.41-2.1l.33-.18,.42-.09c.91-.19,1.76,.09,3.45,.63,1.28,.41,3.67,1.18,4.62,1.08,.06,0,.11-.02,.17-.03,.55-.11,1.28-.46,1.98-.79l.84-.4c1.42-.67,3.03-1.42,4.16-2.33,1.07-.86,1.7-1.72,1.56-2.12-.07-.22-.29-.89-2.55-.62-.5,.06-1.05,.15-1.64,.27-1.22,.25-3.2,.75-5.69,1.73-3.21,1.25-5.59,2.11-7.54,2.51-.35,.07-.68,.13-1,.17-3.36,.43-6.04-.36-7.69-1.1-4.21-1.89-6.98-5-8-8.99-2.92-11.34,1.78-23.11,4.85-29.12l.13-.26c4.19-8.22,9.4-18.45,19.74-21.62,.39-.12,.78-.22,1.16-.3,8.38-1.72,14.79,6,17.44,14.41,.19,.62,.5,1.46,.83,2.35,1.57,4.26,2.15,6.15,1.52,7.71-.49,1.21-1.66,1.87-4.48,3.48-1.08,.61-2.3,1.3-3.45,2.03-2.82,1.68-4.2,2.51-6.95,4.17l-2.63,1.6-1.02-2.9c-.36-1.03-1.1-2.73-1.95-2.58l-.13,.02c-1.69,.35-3.21,1.78-4.17,3.93-.65,1.45-.7,3.01-.16,4.11,.25,.1,.99,.22,2.42,0,.22-.03,.46-.08,.7-.12,1.02-.21,2.21-.56,3.54-1.05,2.32-.85,4.52-1.5,6.55-1.91,.67-.14,1.33-.25,1.97-.34,8.47-1.19,12.71,2.63,14.78,6.04,.65,1.08,1.6,2.72,2.23,4.47,1.66,4.61,1.6,10.24-.19,16.74-2.1,7.6-6.61,14.63-12.72,19.79-2.78,2.35-5.87,3.89-9.2,4.57Z"/><path class="explosion-cls-1" d="M193.75,61.78c.76,2.43,2.88,7.25,2.42,8.38-.26,.64-3.75,2.32-6.94,4.32-2.78,1.65-4.16,2.49-6.92,4.16-1.11-3.16-2.69-4.56-4.73-4.21-2.49,.43-4.79,2.32-6.16,5.39-1.03,2.3-.98,4.7,0,6.46,.64,1.15,2.32,1.54,4.92,1.16,1.33-.2,2.9-.63,4.73-1.3,2.92-1.07,5.59-1.79,8-2.13,5.84-.82,9.92,.94,12.3,4.86,.75,1.23,1.5,2.61,2.02,4.03,1.58,4.38,1.28,9.68-.25,15.22-1.97,7.13-6.25,13.75-11.92,18.55-3.06,2.59-6.55,4.09-10.47,4.35-3.56,.23-10.55-.58-11.54-2.05-.99-1.47,.87-18.29,1.42-18.59,.5-.27,5.45,1.98,7.88,1.73,1.06-.11,2.18-.68,3.2-1.16,1.67-.79,3.72-1.68,5.26-2.93,2.06-1.67,2.88-3.29,2.36-4.85-.61-1.85-2.34-2.66-5.22-2.32-1.88,.22-4.68,.87-7.95,2.15-3.31,1.29-6.02,2.28-7.95,2.53-2.56,.33-4.75-.19-6.35-.9-3.07-1.37-5.66-3.66-6.61-7.33-2.36-9.16,.53-19.28,4.65-27.36,4.17-8.18,8.95-17.73,18.38-20.62,7.89-2.42,13.43,5.95,15.49,12.48Z"/><path class="explosion-cls-18" d="M219.84,136.45c-1.3,.27-2.66,.23-4.04-.11-1.41-.34-2.82-1.01-4.17-2-1.28-.93-2.44-2.18-3.46-3.72-.97-1.47-1.74-3.01-2.28-4.58-.51-1.5-.77-3.26-.78-5.36-.01-1.99,.31-3.66,.98-5.11,.67-1.45,1.51-2.71,2.5-3.76,1.05-1.12,2.34-1.99,3.83-2.58,.65-.26,1.31-.46,1.95-.59,.98-.2,1.92-.24,2.78-.12,1.94,.28,3.66,1.39,4.76,2.27,1.33,1.07,2.47,2.31,3.37,3.69,.89,1.35,1.61,2.91,2.15,4.66,.51,1.68,.73,3.46,.65,5.32-.08,1.92-.35,3.57-.83,5.04-.57,1.77-1.45,3.23-2.61,4.34-1.13,1.08-2.42,1.87-3.84,2.35-.32,.11-.64,.19-.97,.26Zm.81-29.88c-6.28-.04-10.16-.01-11.61,0-1,0-2.25,.01-2.95-1.38l-.71-1.41,.75-.96c.23-2.03-1.51-9.83-2.68-15.06-.79-3.53-1.6-7.17-2.11-10.06-1.47-8.36-3.3-18.77-5-28.75l-.45-2.61,2.63-.29c7.93-.88,11.81-1.27,19.76-2l2.64-.24,.09,2.65c.65,19.11,1.37,38.46,2.15,57.53l.11,2.62-2.62-.02Z"/><path class="explosion-cls-1" d="M216.39,133.92c-1.13-.28-2.25-.83-3.29-1.59-1.04-.75-1.99-1.78-2.85-3.07-.85-1.29-1.52-2.63-2-4.01-.47-1.38-.64-2.96-.65-4.57,0-1.45,.19-2.84,.75-4.04,.56-1.21,1.24-2.24,2.04-3.09,.81-.85,1.79-1.51,2.94-1.97,1.15-.46,2.38-.71,3.45-.56,1.17,.17,2.42,.84,3.56,1.75,1.14,.91,2.09,1.95,2.85,3.11,.76,1.16,1.38,2.5,1.85,4.02,.47,1.52,.61,3.05,.55,4.48-.06,1.5-.26,3-.71,4.38-.45,1.38-1.1,2.48-1.96,3.3-.86,.82-1.83,1.42-2.9,1.78-1.08,.36-2.32,.41-3.62,.09Zm-8.07-29.85c1.52-1.95-2.95-17.9-4.52-26.8-1.68-9.55-3.36-19.16-5-28.74,7.87-.87,11.82-1.27,19.71-2,.65,19.19,1.37,38.37,2.15,57.55-8.29-.05-12.35,0-12.34,0Z"/><g><path class="explosion-cls-4" d="M37.34,125.21c-1.73-5.66-1.69-11.55,.12-17.51,2.08-6.86,7.32-12.33,14.01-14.62,.88-.3,1.77-.55,2.64-.72,4.36-.89,8.64-.21,12.74,2.03-.46-.35-.93-.7-1.42-1.04-4.74-3.26-9.75-4.38-14.86-3.33-.87,.18-1.76,.42-2.64,.72-6.69,2.29-11.93,7.76-14.01,14.62-1.8,5.95-1.84,11.84-.12,17.51,1.01,3.33,2.52,6.33,4.47,8.94,1.8,2.41,4.2,4.6,7.13,6.51,.56,.36,1.12,.7,1.68,1.02-2.09-1.58-3.86-3.32-5.27-5.19-1.95-2.61-3.46-5.61-4.47-8.94Z"/><path class="explosion-cls-4" d="M63.98,134.77c4.05-.93,6.69-3.4,7.65-7.15,.72-2.83,.51-6.17-.64-9.93-1.23-4.04-3.26-7.66-6.04-10.76-1.64-1.84-3.25-2.93-4.73-3.55,.39,.36,.79,.76,1.19,1.21,2.77,3.1,4.81,6.72,6.04,10.76,1.15,3.76,1.36,7.11,.64,9.93-.96,3.75-3.6,6.23-7.65,7.15-.11,.02-.21,.05-.32,.07-2.45,.5-4.81,.32-7.01-.54,1.04,1,2.09,1.72,3.17,2.18,2.31,.99,4.79,1.22,7.38,.69,.11-.02,.21-.05,.32-.07Z"/><path class="explosion-cls-4" d="M86.24,123.98c-1.97-3.14-3.47-6.71-4.48-10.61-1.7-6.6-1.59-13.32,.33-19.96,2.17-7.49,7.52-13.16,14.33-15.16,.53-.16,1.06-.29,1.59-.4,3.99-.82,7.89-.21,11.65,1.8-4.83-3.82-9.94-5.22-15.19-4.14-.52,.11-1.06,.24-1.59,.4-6.81,2-12.16,7.67-14.33,15.16-1.28,4.43-1.75,8.88-1.43,13.32,1.56,2.72,2.82,5.82,3.75,9.24,.6,2.23,.96,4.49,1.08,6.77,.24,.42,.49,.84,.74,1.24,1.82,2.9,4.23,5.58,7.17,7.97,1.56,1.26,3.11,2.33,4.66,3.22-.38-.28-.75-.58-1.13-.88-2.94-2.39-5.35-5.07-7.17-7.97Z"/><path class="explosion-cls-4" d="M108.59,125.79c3.98-.81,6.6-3.36,7.59-7.35,.75-3.02,.59-6.68-.47-10.86-1.14-4.52-3.09-8.65-5.79-12.27-1.95-2.62-3.89-4.04-5.64-4.73,.69,.66,1.4,1.44,2.1,2.39,2.7,3.62,4.64,7.75,5.79,12.27,1.06,4.19,1.22,7.84,.47,10.86-.99,4-3.62,6.54-7.59,7.35-.09,.02-.18,.04-.27,.05-2.28,.42-4.47,.2-6.52-.64,.73,.72,1.47,1.28,2.22,1.7,2.42,1.35,5.06,1.78,7.84,1.27,.09-.02,.18-.03,.27-.05Z"/><path class="explosion-cls-4" d="M125.48,100.8c-1.15-4.66-3.17-10.6-5.12-16.35-1.87-5.51-4.41-12.95-4.48-15.05,1.88-1.82,12.72-6.41,21.3-8.16,.17-.04,.34-.07,.51-.1,4.29-.82,8.09-.53,11.16,.83-.45-.42-.93-.8-1.42-1.15-3.34-2.34-7.94-3.04-13.28-2.02-.17,.03-.34,.07-.51,.1-8.58,1.76-19.42,6.34-21.3,8.16,.07,2.1,2.61,9.54,4.48,15.05,.6,1.76,1.2,3.54,1.79,5.29,1.1,1.4,2.06,2.88,2.87,4.41,1.81,3.45,3.24,7.46,4.25,11.93,.94,4.2,1.18,8.69,.72,13.16,.91,3.85,1.79,7.73,2.61,11.6,1.03-.25,1.98-.47,2.88-.69-1.78-8.11-3.79-16.22-5.74-24.11l-.72-2.91Z"/><path class="explosion-cls-4" d="M145.55,78.46c.34,3.57-.29,6.66-1.86,9.2-2.08,3.35-5.17,5.53-9.2,6.5,.06,.24,.13,.48,.19,.72l.58,2.21,2.23-.47c4.29-.9,7.57-3.13,9.74-6.63,1.57-2.54,2.2-5.63,1.86-9.2-.53-5.6-3.55-7.71-5.9-8.5,1.16,1.33,2.09,3.29,2.36,6.17Z"/><path class="explosion-cls-4" d="M183.35,75.21c.22-.13,.44-.27,.66-.4-.41-.19-.82-.32-1.21-.4,.19,.24,.38,.5,.56,.79Z"/><path class="explosion-cls-4" d="M180.23,92.13c.31-.05,.63-.1,.95-.17,1.26-.26,2.69-.68,4.25-1.26,2.09-.77,4.05-1.34,5.84-1.71,.57-.12,1.13-.21,1.67-.29,2.17-.3,4.02-.21,5.58,.28-1.98-2.34-4.98-3.2-9.12-2.62-.54,.08-1.1,.17-1.67,.29-1.78,.37-3.75,.94-5.84,1.71-1.56,.57-2.99,1-4.25,1.26-.33,.07-.65,.12-.95,.17-1.55,.23-2.8,.21-3.81,.02,.82,1.45,2.77,3.01,7.35,2.32Z"/><path class="explosion-cls-4" d="M165.57,73.34l.13-.26c3.96-7.78,8.46-16.6,16.81-19.16,.24-.07,.48-.13,.71-.18,1.19-.24,2.31-.14,3.35,.21-1.88-1.89-4.2-3.1-6.88-2.54-.23,.05-.47,.11-.71,.18-8.35,2.56-12.85,11.38-16.81,19.16l-.13,.26c-.96,1.88-2.1,4.39-3.07,7.27,.85,4.72,.75,9.15-.31,12.9-.35,1.23-.84,2.47-1.47,3.7,.11,.6,.23,1.21,.39,1.81,.65,2.54,2.42,4.47,5.26,5.74,.08,.03,.16,.07,.25,.1-.96-1-1.63-2.17-1.97-3.51-2.52-9.78,1.72-20.28,4.47-25.68Z"/><path class="explosion-cls-4" d="M182.28,116.82c.21-.02,.43-.06,.65-.1,1.14-.23,2.18-.73,3.1-1.17l.81-.38c1.67-.78,3.57-1.67,5.16-2.96,3.65-2.95,3.72-5.69,3.13-7.46-.43-1.3-1.52-3.2-4.27-3.83,.35,.52,.58,1.04,.73,1.49,.59,1.77,.52,4.51-3.13,7.46-1.59,1.29-3.49,2.18-5.16,2.96l-.81,.38c-.92,.44-1.97,.94-3.1,1.17-.22,.05-.44,.08-.65,.1-1.75,.18-3.9-.42-6.31-1.19-.56,3.87-1.28,11.78-1.09,14.25,.71,.29,2.01,.57,3.52,.78,.06-3.33,.64-9.44,1.12-12.69,2.42,.77,4.57,1.37,6.31,1.19Z"/><path class="explosion-cls-4" d="M214.3,101.65c-.39-2.81-1.23-6.8-2.53-12.63-.78-3.47-1.58-7.06-2.07-9.84-1.35-7.66-2.99-17.04-4.57-26.22,4.26-.47,7.39-.79,11.16-1.15-.03-.89-.06-1.78-.09-2.66-5.5,.51-9.12,.88-14.6,1.48,1.58,9.18,3.22,18.56,4.57,26.22,.49,2.77,1.29,6.37,2.07,9.84,1.72,7.69,2.62,12.18,2.77,14.97,.88,0,1.98,0,3.3,0Z"/><path class="explosion-cls-4" d="M214.07,126.8c-.34-.99-.51-2.24-.52-3.81,0-1.23,.17-2.25,.53-3.02,.45-.96,.99-1.79,1.61-2.45,.57-.61,1.25-1.06,2.08-1.39,.39-.15,.76-.27,1.12-.34,.42-.09,.8-.11,1.1-.07,.01,0,.03,0,.04,0-.36-.39-.76-.75-1.18-1.09-.87-.7-1.75-1.16-2.4-1.25-.3-.04-.68-.02-1.1,.07-.36,.07-.73,.19-1.12,.34-.83,.33-1.51,.79-2.08,1.39-.62,.66-1.17,1.48-1.61,2.45-.36,.77-.53,1.79-.53,3.02,0,1.57,.18,2.82,.52,3.81,.4,1.17,.98,2.34,1.73,3.46,.69,1.05,1.45,1.88,2.25,2.46,.76,.55,1.52,.94,2.25,1.15-.33-.38-.66-.8-.97-1.27-.75-1.12-1.33-2.29-1.73-3.46Z"/></g></g></g></g></g></svg>