<?xml version="1.0" encoding="UTF-8"?><svg id="Layer_1" xmlns="http://www.w3.org/2000/svg" viewBox="0 0 600 400"><defs><style>.tarjeta-cls-1,.tarjeta-cls-2{fill:#008aab;}.tarjeta-cls-3{fill:#fef8e8;}.tarjeta-cls-2{stroke:#008aab;stroke-miterlimit:10;}</style></defs><rect class="tarjeta-cls-3" x="-5" y=".5" width="610" height="406"/><g><g><g><g><g><g><g><g><path class="tarjeta-cls-2" d="M573.96,337.22c1.53-4.66-.43-8.74-4.21-12.84-6.96-7.55-2.98-14.57,2.99-15.06,4.32-.35,8.86,2.65,8.12,7.05-.98,5.86-9.09,4.81-8.56-.12,.19-1.77,1.85-2.67,3.16-2.21,1.98,.69,.84,3.24-.61,2.7-.75-.28-.29-1.14,.65-.84,.47-.28,.24-.96-.51-1.19-1.01-.31-2.15,.42-2.33,1.67-.53,3.64,6.9,5.04,7.91,.05,.7-3.46-3.01-6.15-7.35-5.55-4.11,.57-8.94,6.07-2.36,13.55,4.26,4.83,4.57,9.49,3.1,12.8Z"/><path class="tarjeta-cls-2" d="M562.66,358.4c-.29,5.03,2.4,9.29,7.32,10.86,3.85,1.22,8.74-.47,10.33-4.21,2.45-5.77-3.35-10.99-7.84-7.05-.98,.86-.14,2.68,1.79,3.5,2.57,1.09,5.11,1.63,2.71,4.26-3.59,3.93-13.65,2.08-14.31-7.37Z"/><path class="tarjeta-cls-2" d="M562.06,361.24c-1.46-4.36-.59-10.32,4.27-14.5,2.23-1.91,4.93-2.63,6.58-4.43,2.69-2.94,.43-5.2,4.94-8.02-1.87,3.26,1.97,6.15,.67,9.28-1.77,4.26-7.41,1.91-8.57,4.5,2.45-1.19,6.18-.13,6.48,2.55,.27,2.49-2.35,4.32-4.35,3.54,.55-.24,1.13-1.24,.91-2.01-.68-2.49-4.38-2.46-7.29-.73-2.54,1.51-5.01,4.82-3.64,9.8Z"/><path class="tarjeta-cls-2" d="M560.59,356.5c-.21-4.44,1.67-9.52,6.4-12.65,6.44-4.26,7.88-9.4,5.14-13.77-4.46-7.13-14.66-5.2-15.97,1.36-.59,2.97,1.96,5.84,5.26,5.75,3.98-.1,5.5-4.34,2.66-6.13-3.21-2.02-5.45,2.5-2.45,2.64,1.69,.07,.42-1.17,.61-1.74,.63,.03,1.94,.76,1.7,2.17-.54,3.13-6.36,2.43-5.49-2.28,.83-4.49,8.75-6.56,12.47-1.92,3.02,3.76,.68,10.67-6.99,10.51,1.09,5.26-4.65,7.43-3.34,16.06Z"/></g><g><path class="tarjeta-cls-2" d="M533.3,374.2c-5.13,1.4-9.61-.39-14.12-3.83-8.3-6.33-16.03-2.71-16.56,2.72-.38,3.93,2.91,8.06,7.76,7.38,6.45-.89,5.28-8.26-.13-7.78-1.95,.17-2.94,1.68-2.43,2.88,.76,1.8,3.57,.77,2.97-.56-.31-.68-1.26-.27-.94,.58-.31,.44-1.05,.22-1.32-.46-.34-.91,.47-1.95,1.85-2.11,3.99-.49,5.54,6.27,.05,7.19-3.81,.64-6.77-2.74-6.1-6.68,.63-3.73,6.68-8.13,14.9-2.14,5.31,3.87,10.44,4.15,14.08,2.82Z"/><path class="tarjeta-cls-2" d="M556.6,363.92c5.53-.26,10.21,2.18,11.94,6.65,1.34,3.5-.52,7.95-4.63,9.39-6.34,2.23-12.08-3.05-7.75-7.13,.95-.89,2.94-.13,3.85,1.63,1.19,2.34,1.8,4.65,4.69,2.46,4.33-3.26,2.29-12.41-8.1-13.01Z"/><path class="tarjeta-cls-2" d="M559.72,363.37c-4.8-1.33-11.34-.53-15.95,3.89-2.1,2.02-2.89,4.48-4.87,5.98-3.23,2.45-5.72,.39-8.82,4.49,3.58-1.7,6.77,1.79,10.2,.61,4.68-1.61,2.1-6.74,4.95-7.79-1.3,2.23-.14,5.62,2.81,5.89,2.73,.25,4.75-2.14,3.9-3.96-.27,.5-1.37,1.03-2.21,.84-2.75-.62-2.71-3.98-.8-6.63,1.65-2.31,5.31-4.56,10.78-3.31Z"/><path class="tarjeta-cls-2" d="M554.5,362.03c-4.88-.19-10.47,1.52-13.92,5.83-4.69,5.85-10.34,7.16-15.14,4.68-7.84-4.06-5.72-13.34,1.49-14.53,3.27-.54,6.42,1.79,6.32,4.77-.11,3.62-4.77,5-6.73,2.42-2.23-2.92,2.74-4.95,2.9-2.23,.08,1.54-1.29,.39-1.92,.56,.03,.58,.83,1.76,2.38,1.54,3.45-.49,2.68-5.78-2.51-4.99-4.94,.75-7.21,7.95-2.11,11.34,4.14,2.74,11.73,.62,11.56-6.35,5.79,.99,8.18-4.22,17.67-3.04Z"/></g></g><path class="tarjeta-cls-2" d="M569.23,369.89c1.82,3.6-.25,6.99,2.15,8.54,1.75,1.12,3.38-.17,5.08,.15,.98,.18,1.29,1.17,.72,1.71,.91,.06,1.75-1.12,1.09-2.18h0c1.16,.6,2.45-.17,2.39-.99-.59,.52-1.68,.24-1.88-.66-.35-1.55,1.07-3.03-.17-4.62-1.7-2.18-5.43-.3-9.39-1.96Zm7.14,3.59c.94,1.24-.11,2.2,1.07,3.86h0c-1.84-1.07-2.89-.1-4.25-.97-2.15-1.36-1.16-3.72-3.94-6.48,3.04,2.53,5.64,1.63,7.13,3.58Z"/></g><path class="tarjeta-cls-2" d="M555.79,355.09c-.58-.69-2.03-1.17-3.08-.21-1.05,.94-.51,2.27,.24,2.8-2.82,.55-2.03,3.65,1.01,3.9,2.63,.22,6.02,.31,9.36,2.95-2.9-3.04-2.99-6.13-3.23-8.52-.28-2.75-3.68-3.47-4.3-.91Zm3.13,2.93c1.01,1.16,.72,2.67,2.91,5.15-2.72-2-4.38-1.73-5.66-2.65-1.12-.8-.87-1.97-.16-2.64,.74-.65,2.02-.87,2.9,.14Z"/><path class="tarjeta-cls-2" d="M574.02,304.12c-2.77,1.11-4.87-5.54,1.53-6.68,4.93-.87,8.49,5.34,3.24,8.77-6.07,3.97-14.41-1.82-17.34-7.83-2.32-4.77-1.55-6.42-1.03-9.23-.52,3.6-.49,5.34,1.46,9.17,3.66,7.16,12.46,9.85,15.84,5.94,1.61-1.86,1.22-4.43-1-5.13-2.22-.7-4.49,.86-4.14,3.05,2.1-.52,2.99,1.31,1.43,1.93Z"/><path class="tarjeta-cls-2" d="M559.39,295.56c-6.97-11.8,13.45-25.55,21.5-12.6,3.25,5.22-1.06,11.97-7.87,11.28-7.98-.81-7.7-11.54,.22-10.88,5.32,.44,5.75,7.82,.34,7.43-1.75-.13-1.9-2.03-1.21-2.81,.69-.78,1.67,.19,1.89,.31,1.63-1.33,.27-3.05-1.63-2.96-5.48,.25-4.49,8.61,2.14,8.18,4.74-.32,7.2-6.01,4.01-9.94-7.74-9.54-24.38,.9-19.4,12Z"/><path class="tarjeta-cls-2" d="M568.51,276.89c-1.66-4.91,1.25-9.22,5.03-10.09,3.98-.92,5.77,1.83,5.44,3.32-.74,3.37-5.86-3.55-9.3-.11-1.51,1.5-1.5,4.15,.29,5.33-.67,.23-1,.53-1.45,1.55Z"/><path class="tarjeta-cls-2" d="M496.89,374.25c1.22-2.52-6.09-4.43-7.35,1.4-.96,4.49,5.87,7.72,9.64,2.94,4.37-5.52-2-13.1-8.61-15.76-5.25-2.11-7.05-1.41-10.15-.94,3.95-.47,5.88-.45,10.09,1.33,7.87,3.33,10.84,11.33,6.53,14.41-2.05,1.47-4.87,1.11-5.65-.91-.77-2.01,.95-4.08,3.36-3.76-.58,1.91,1.44,2.72,2.13,1.3Z"/><path class="tarjeta-cls-2" d="M487.48,360.95c-12.98-6.33-28.11,12.23-13.86,19.55,5.75,2.95,13.17-.96,12.41-7.16-.88-7.26-12.69-7-11.97,.2,.49,4.84,8.6,5.23,8.17,.32-.14-1.6-2.23-1.73-3.09-1.1-.86,.62,.21,1.52,.34,1.72-1.46,1.49-3.36,.25-3.26-1.48,.28-4.99,9.48-4.08,8.99,1.95-.35,4.31-6.61,6.54-10.93,3.64-10.49-7.04,.99-22.17,13.2-17.63Z"/><path class="tarjeta-cls-2" d="M466.94,369.24c-5.4-1.51-10.14,1.13-11.1,4.57-1.01,3.62,2.01,5.25,3.66,4.95,3.7-.68-3.9-5.33-.12-8.46,1.65-1.37,4.57-1.36,5.86,.26,.25-.6,.58-.91,1.71-1.32Z"/><g><path class="tarjeta-cls-2" d="M551.12,349.68c-2.45-3.97-5.29-10.05-.53-12.67,2.81-1.55,5.94-.12,7.15,1.97,1.21,2.07,.14,4.35-2.38,4.78,.03-3.53-3.57-3.97-5.19-1.52-1.65,2.48,.96,7.44,.96,7.44Z"/><path class="tarjeta-cls-2" d="M555.48,347.23c2.91-.91,3.54,3.15,.08,2.8-.81-.08-1.81,.84-1.87,1.78,0,0-.87-3.74,1.79-4.57Z"/></g><g><path class="tarjeta-cls-2" d="M547.01,353.42c-4.36-2.23-11.05-4.81-13.94-.48-1.7,2.56-.13,5.4,2.16,6.5,2.29,1.1,4.79,.13,5.26-2.17-3.88,.03-4.37-3.25-1.68-4.72,2.73-1.5,8.19,.87,8.19,.87Z"/><path class="tarjeta-cls-2" d="M544.3,357.39c-1,2.65,3.46,3.22,3.08,.07-.09-.73,.92-1.65,1.95-1.7,0,0-4.12-.8-5.03,1.62Z"/></g></g><g><g><g><g><path class="tarjeta-cls-2" d="M25.04,337.22c-1.53-4.66,.43-8.74,4.21-12.84,6.96-7.55,2.98-14.57-2.99-15.06-4.32-.35-8.86,2.65-8.12,7.05,.98,5.86,9.09,4.81,8.56-.12-.19-1.77-1.85-2.67-3.16-2.21-1.98,.69-.84,3.24,.61,2.7,.75-.28,.29-1.14-.65-.84-.47-.28-.24-.96,.51-1.19,1.01-.31,2.15,.42,2.33,1.67,.53,3.64-6.9,5.04-7.91,.05-.7-3.46,3.01-6.15,7.35-5.55,4.11,.57,8.94,6.07,2.36,13.55-4.26,4.83-4.57,9.49-3.1,12.8Z"/><path class="tarjeta-cls-2" d="M36.34,358.4c.29,5.03-2.4,9.29-7.32,10.86-3.85,1.22-8.74-.47-10.33-4.21-2.45-5.77,3.35-10.99,7.84-7.05,.98,.86,.14,2.68-1.79,3.5-2.57,1.09-5.11,1.63-2.71,4.26,3.59,3.93,13.65,2.08,14.31-7.37Z"/><path class="tarjeta-cls-2" d="M36.94,361.24c1.46-4.36,.59-10.32-4.27-14.5-2.23-1.91-4.93-2.63-6.58-4.43-2.69-2.94-.43-5.2-4.94-8.02,1.87,3.26-1.97,6.15-.67,9.28,1.77,4.26,7.41,1.91,8.57,4.5-2.45-1.19-6.18-.13-6.48,2.55-.27,2.49,2.35,4.32,4.35,3.54-.55-.24-1.13-1.24-.91-2.01,.68-2.49,4.38-2.46,7.29-.73,2.54,1.51,5.01,4.82,3.64,9.8Z"/><path class="tarjeta-cls-2" d="M38.41,356.5c.21-4.44-1.67-9.52-6.4-12.65-6.44-4.26-7.88-9.4-5.14-13.77,4.46-7.13,14.66-5.2,15.97,1.36,.59,2.97-1.96,5.84-5.26,5.75-3.98-.1-5.5-4.34-2.66-6.13,3.21-2.02,5.45,2.5,2.45,2.64-1.69,.07-.42-1.17-.61-1.74-.63,.03-1.94,.76-1.7,2.17,.54,3.13,6.36,2.43,5.49-2.28-.83-4.49-8.75-6.56-12.47-1.92-3.02,3.76-.68,10.67,6.99,10.51-1.09,5.26,4.65,7.43,3.34,16.06Z"/></g><g><path class="tarjeta-cls-2" d="M65.7,374.2c5.13,1.4,9.61-.39,14.12-3.83,8.3-6.33,16.03-2.71,16.56,2.72,.38,3.93-2.91,8.06-7.76,7.38-6.45-.89-5.28-8.26,.13-7.78,1.95,.17,2.94,1.68,2.43,2.88-.76,1.8-3.57,.77-2.97-.56,.31-.68,1.26-.27,.94,.58,.31,.44,1.05,.22,1.32-.46,.34-.91-.47-1.95-1.85-2.11-3.99-.49-5.54,6.27-.05,7.19,3.81,.64,6.77-2.74,6.1-6.68-.63-3.73-6.68-8.13-14.9-2.14-5.31,3.87-10.44,4.15-14.08,2.82Z"/><path class="tarjeta-cls-2" d="M42.4,363.92c-5.53-.26-10.21,2.18-11.94,6.65-1.34,3.5,.52,7.95,4.63,9.39,6.34,2.23,12.08-3.05,7.75-7.13-.95-.89-2.94-.13-3.85,1.63-1.19,2.34-1.8,4.65-4.69,2.46-4.33-3.26-2.29-12.41,8.1-13.01Z"/><path class="tarjeta-cls-2" d="M39.28,363.37c4.8-1.33,11.34-.53,15.95,3.89,2.1,2.02,2.89,4.48,4.87,5.98,3.23,2.45,5.72,.39,8.82,4.49-3.58-1.7-6.77,1.79-10.2,.61-4.68-1.61-2.1-6.74-4.95-7.79,1.3,2.23,.14,5.62-2.81,5.89-2.73,.25-4.75-2.14-3.9-3.96,.27,.5,1.37,1.03,2.21,.84,2.74-.62,2.71-3.98,.8-6.63-1.65-2.31-5.31-4.56-10.78-3.31Z"/><path class="tarjeta-cls-2" d="M44.5,362.03c4.88-.19,10.47,1.52,13.92,5.83,4.69,5.85,10.34,7.16,15.14,4.68,7.84-4.06,5.72-13.34-1.49-14.53-3.27-.54-6.42,1.79-6.32,4.77,.11,3.62,4.77,5,6.73,2.42,2.23-2.92-2.74-4.95-2.9-2.23-.08,1.54,1.29,.39,1.92,.56-.03,.58-.83,1.76-2.38,1.54-3.45-.49-2.68-5.78,2.51-4.99,4.94,.75,7.21,7.95,2.11,11.34-4.14,2.74-11.73,.62-11.56-6.35-5.79,.99-8.18-4.22-17.67-3.04Z"/></g></g><path class="tarjeta-cls-2" d="M20.38,371.85c-1.24,1.58,.18,3.07-.17,4.62-.2,.89-1.29,1.17-1.88,.66-.06,.82,1.23,1.59,2.39,.99h0c-.67,1.05,.18,2.23,1.09,2.18-.57-.53-.26-1.53,.72-1.71,1.7-.32,3.33,.98,5.08-.15,2.4-1.55,.33-4.94,2.15-8.54-3.96,1.65-7.69-.22-9.39,1.96Zm9.38-1.95c-2.79,2.76-1.79,5.12-3.94,6.48-1.36,.86-2.41-.1-4.25,.97h0s0,0,0,0c1.18-1.67,.12-2.63,1.07-3.86,1.49-1.95,4.09-1.05,7.13-3.58Z"/></g><path class="tarjeta-cls-2" d="M38.91,356c-.23,2.39-.33,5.48-3.23,8.52,3.34-2.63,6.74-2.73,9.36-2.95,3.03-.24,3.82-3.35,1.01-3.9,.75-.53,1.28-1.86,.24-2.8-1.05-.95-2.5-.48-3.08,.21-.62-2.57-4.02-1.85-4.3,.91Zm4.07,1.88c.71,.67,.96,1.84-.16,2.64-1.28,.92-2.94,.66-5.66,2.65,2.19-2.47,1.9-3.98,2.91-5.15,.89-1.02,2.16-.79,2.9-.14Z"/><path class="tarjeta-cls-2" d="M24.98,304.12c2.77,1.11,4.87-5.54-1.53-6.68-4.93-.87-8.49,5.34-3.24,8.77,6.07,3.97,14.41-1.82,17.34-7.83,2.32-4.77,1.55-6.42,1.03-9.23,.52,3.6,.49,5.34-1.46,9.17-3.66,7.16-12.46,9.85-15.84,5.94-1.61-1.86-1.22-4.43,1-5.13,2.22-.7,4.49,.86,4.14,3.05-2.1-.52-2.99,1.31-1.43,1.93Z"/><path class="tarjeta-cls-2" d="M39.61,295.56c6.97-11.8-13.45-25.55-21.5-12.6-3.25,5.22,1.06,11.97,7.87,11.28,7.98-.81,7.7-11.54-.22-10.88-5.32,.44-5.75,7.82-.34,7.43,1.75-.13,1.9-2.03,1.21-2.81-.69-.78-1.67,.19-1.89,.31-1.63-1.33-.27-3.05,1.63-2.96,5.49,.25,4.49,8.61-2.14,8.18-4.74-.32-7.2-6.01-4.01-9.94,7.74-9.54,24.38,.9,19.4,12Z"/><path class="tarjeta-cls-2" d="M30.49,276.89c1.66-4.91-1.25-9.22-5.03-10.09-3.98-.92-5.77,1.83-5.44,3.32,.74,3.37,5.86-3.55,9.3-.11,1.51,1.5,1.5,4.15-.29,5.33,.67,.23,1,.53,1.45,1.55Z"/><path class="tarjeta-cls-2" d="M102.11,374.25c-1.22-2.52,6.09-4.43,7.35,1.4,.96,4.49-5.87,7.72-9.64,2.94-4.37-5.52,2-13.1,8.61-15.76,5.25-2.11,7.05-1.41,10.15-.94-3.95-.47-5.88-.45-10.09,1.33-7.87,3.33-10.84,11.33-6.53,14.41,2.05,1.47,4.87,1.11,5.65-.91,.77-2.01-.95-4.08-3.36-3.76,.58,1.91-1.44,2.72-2.13,1.3Z"/><path class="tarjeta-cls-2" d="M111.52,360.95c12.98-6.33,28.11,12.23,13.86,19.55-5.75,2.95-13.17-.96-12.41-7.16,.88-7.26,12.69-7,11.97,.2-.49,4.84-8.6,5.23-8.17,.32,.14-1.6,2.23-1.73,3.09-1.1,.86,.62-.21,1.52-.34,1.72,1.46,1.49,3.36,.25,3.26-1.48-.28-4.99-9.48-4.08-8.99,1.95,.35,4.31,6.61,6.54,10.93,3.64,10.49-7.04-.99-22.17-13.2-17.63Z"/><path class="tarjeta-cls-2" d="M132.06,369.24c5.4-1.51,10.14,1.13,11.1,4.57,1.01,3.62-2.01,5.25-3.66,4.95-3.7-.68,3.9-5.33,.12-8.46-1.65-1.37-4.57-1.36-5.86,.26-.25-.6-.58-.91-1.71-1.32Z"/><g><path class="tarjeta-cls-2" d="M47.88,349.68c2.45-3.97,5.29-10.05,.53-12.67-2.81-1.55-5.94-.12-7.15,1.97-1.21,2.07-.14,4.35,2.38,4.78-.03-3.53,3.57-3.97,5.19-1.52,1.65,2.48-.96,7.44-.96,7.44Z"/><path class="tarjeta-cls-2" d="M43.52,347.23c-2.91-.91-3.54,3.15-.08,2.8,.81-.08,1.81,.84,1.87,1.78,0,0,.87-3.74-1.79-4.57Z"/></g><g><path class="tarjeta-cls-2" d="M51.99,353.42c4.36-2.23,11.05-4.81,13.94-.48,1.7,2.56,.13,5.4-2.16,6.5-2.29,1.1-4.79,.13-5.26-2.17,3.88,.03,4.37-3.25,1.68-4.72-2.73-1.5-8.19,.87-8.19,.87Z"/><path class="tarjeta-cls-2" d="M54.7,357.39c1,2.65-3.46,3.22-3.08,.07,.09-.73-.92-1.65-1.95-1.7,0,0,4.12-.8,5.03,1.62Z"/></g></g></g><g><g><g><g><g><path class="tarjeta-cls-2" d="M573.96,62.78c1.53,4.66-.43,8.74-4.21,12.84-6.96,7.55-2.98,14.57,2.99,15.06,4.32,.35,8.86-2.65,8.12-7.05-.98-5.86-9.09-4.81-8.56,.12,.19,1.77,1.85,2.67,3.16,2.21,1.98-.69,.84-3.24-.61-2.7-.75,.28-.29,1.14,.65,.84,.47,.28,.24,.96-.51,1.19-1.01,.31-2.15-.42-2.33-1.67-.53-3.64,6.9-5.04,7.91-.05,.7,3.46-3.01,6.15-7.35,5.55-4.11-.57-8.94-6.07-2.36-13.55,4.26-4.83,4.57-9.49,3.1-12.8Z"/><path class="tarjeta-cls-2" d="M562.66,41.6c-.29-5.03,2.4-9.29,7.32-10.86,3.85-1.22,8.74,.47,10.33,4.21,2.45,5.77-3.35,10.99-7.84,7.05-.98-.86-.14-2.68,1.79-3.5,2.57-1.09,5.11-1.63,2.71-4.26-3.59-3.93-13.65-2.08-14.31,7.37Z"/><path class="tarjeta-cls-2" d="M562.06,38.76c-1.46,4.36-.59,10.32,4.27,14.5,2.23,1.91,4.93,2.63,6.58,4.43,2.69,2.94,.43,5.2,4.94,8.02-1.87-3.26,1.97-6.15,.67-9.28-1.77-4.26-7.41-1.91-8.57-4.5,2.45,1.19,6.18,.13,6.48-2.55,.27-2.49-2.35-4.32-4.35-3.54,.55,.24,1.13,1.24,.91,2.01-.68,2.49-4.38,2.46-7.29,.73-2.54-1.51-5.01-4.82-3.64-9.8Z"/><path class="tarjeta-cls-2" d="M560.59,43.5c-.21,4.44,1.67,9.52,6.4,12.65,6.44,4.26,7.88,9.4,5.14,13.77-4.46,7.13-14.66,5.2-15.97-1.36-.59-2.97,1.96-5.84,5.26-5.75,3.98,.1,5.5,4.34,2.66,6.13-3.21,2.02-5.45-2.5-2.45-2.64,1.69-.07,.42,1.17,.61,1.74,.63-.03,1.94-.76,1.7-2.17-.54-3.13-6.36-2.43-5.49,2.28,.83,4.49,8.75,6.56,12.47,1.92,3.02-3.76,.68-10.67-6.99-10.51,1.09-5.26-4.65-7.43-3.34-16.06Z"/></g><g><path class="tarjeta-cls-2" d="M533.3,25.8c-5.13-1.4-9.61,.39-14.12,3.83-8.3,6.33-16.03,2.71-16.56-2.72-.38-3.93,2.91-8.06,7.76-7.38,6.45,.89,5.28,8.26-.13,7.78-1.95-.17-2.94-1.68-2.43-2.88,.76-1.8,3.57-.77,2.97,.56-.31,.68-1.26,.27-.94-.58-.31-.44-1.05-.22-1.32,.46-.34,.91,.47,1.95,1.85,2.11,3.99,.49,5.54-6.27,.05-7.19-3.81-.64-6.77,2.74-6.1,6.68,.63,3.73,6.68,8.13,14.9,2.14,5.31-3.87,10.44-4.15,14.08-2.82Z"/><path class="tarjeta-cls-2" d="M556.6,36.08c5.53,.26,10.21-2.18,11.94-6.65,1.34-3.5-.52-7.95-4.63-9.39-6.34-2.23-12.08,3.05-7.75,7.12,.95,.89,2.94,.13,3.85-1.63,1.19-2.34,1.8-4.65,4.69-2.46,4.33,3.26,2.29,12.41-8.1,13.01Z"/><path class="tarjeta-cls-2" d="M559.72,36.63c-4.8,1.33-11.34,.53-15.95-3.89-2.1-2.02-2.89-4.48-4.87-5.98-3.23-2.45-5.72-.39-8.82-4.49,3.58,1.7,6.77-1.79,10.2-.61,4.68,1.61,2.1,6.74,4.95,7.79-1.3-2.23-.14-5.62,2.81-5.89,2.73-.25,4.75,2.14,3.9,3.96-.27-.5-1.37-1.03-2.21-.84-2.75,.62-2.71,3.98-.8,6.63,1.65,2.31,5.31,4.56,10.78,3.31Z"/><path class="tarjeta-cls-2" d="M554.5,37.97c-4.88,.19-10.47-1.52-13.92-5.83-4.69-5.85-10.34-7.16-15.14-4.68-7.84,4.06-5.72,13.34,1.49,14.53,3.27,.54,6.42-1.79,6.32-4.77-.11-3.62-4.77-5-6.73-2.42-2.23,2.92,2.74,4.95,2.9,2.23,.08-1.54-1.29-.39-1.92-.56,.03-.58,.83-1.76,2.38-1.54,3.45,.49,2.68,5.78-2.51,4.99-4.94-.75-7.21-7.95-2.11-11.34,4.14-2.74,11.73-.62,11.56,6.35,5.79-.99,8.18,4.22,17.67,3.04Z"/></g></g><path class="tarjeta-cls-2" d="M578.62,28.15c1.24-1.58-.18-3.07,.17-4.62,.2-.89,1.29-1.17,1.88-.66,.06-.82-1.23-1.59-2.39-.99h0c.67-1.05-.18-2.23-1.09-2.18,.57,.53,.26,1.53-.72,1.71-1.7,.32-3.33-.98-5.08,.15-2.4,1.54-.33,4.94-2.15,8.54,3.96-1.65,7.69,.22,9.39-1.96Zm-9.38,1.95c2.79-2.76,1.79-5.12,3.94-6.48,1.36-.86,2.41,.1,4.25-.97h0s0,0,0,0c-1.18,1.67-.12,2.63-1.07,3.86-1.49,1.95-4.09,1.05-7.13,3.58Z"/></g><path class="tarjeta-cls-2" d="M560.09,44c.23-2.39,.33-5.48,3.23-8.52-3.34,2.63-6.74,2.73-9.36,2.95-3.03,.24-3.82,3.35-1.01,3.9-.75,.53-1.28,1.86-.24,2.8,1.05,.95,2.5,.48,3.08-.21,.62,2.57,4.02,1.85,4.3-.91Zm-4.07-1.88c-.71-.67-.96-1.84,.16-2.64,1.28-.92,2.94-.66,5.66-2.65-2.19,2.47-1.9,3.98-2.91,5.15-.89,1.02-2.16,.79-2.9,.14Z"/><path class="tarjeta-cls-2" d="M574.02,95.88c-2.77-1.11-4.87,5.54,1.53,6.68,4.93,.87,8.49-5.33,3.24-8.77-6.07-3.97-14.41,1.82-17.34,7.83-2.32,4.77-1.55,6.42-1.03,9.23-.52-3.6-.49-5.34,1.46-9.17,3.66-7.16,12.46-9.85,15.84-5.94,1.61,1.86,1.22,4.43-1,5.13-2.22,.7-4.49-.86-4.14-3.05,2.1,.52,2.99-1.31,1.43-1.93Z"/><path class="tarjeta-cls-2" d="M559.39,104.44c-6.97,11.8,13.45,25.55,21.5,12.6,3.25-5.22-1.06-11.97-7.87-11.28-7.98,.81-7.7,11.54,.22,10.88,5.32-.44,5.75-7.82,.34-7.43-1.75,.13-1.9,2.03-1.21,2.81,.69,.78,1.67-.19,1.89-.31,1.63,1.33,.27,3.05-1.63,2.96-5.48-.25-4.49-8.61,2.14-8.18,4.74,.32,7.2,6.01,4.01,9.94-7.74,9.54-24.38-.9-19.4-12Z"/><path class="tarjeta-cls-2" d="M568.51,123.11c-1.66,4.91,1.25,9.22,5.03,10.09,3.98,.92,5.77-1.83,5.44-3.32-.74-3.37-5.86,3.55-9.3,.11-1.51-1.5-1.5-4.15,.29-5.33-.67-.23-1-.53-1.45-1.55Z"/><path class="tarjeta-cls-2" d="M496.89,25.75c1.22,2.52-6.09,4.43-7.35-1.4-.96-4.49,5.87-7.72,9.64-2.94,4.37,5.52-2,13.1-8.61,15.76-5.25,2.11-7.05,1.41-10.15,.94,3.95,.47,5.88,.45,10.09-1.33,7.87-3.33,10.84-11.33,6.53-14.41-2.05-1.47-4.87-1.11-5.65,.91-.77,2.01,.95,4.08,3.36,3.76-.58-1.91,1.44-2.72,2.13-1.3Z"/><path class="tarjeta-cls-2" d="M487.48,39.05c-12.98,6.33-28.11-12.23-13.86-19.55,5.75-2.95,13.17,.96,12.41,7.16-.88,7.26-12.69,7-11.97-.2,.49-4.84,8.6-5.23,8.17-.32-.14,1.6-2.23,1.73-3.09,1.1-.86-.62,.21-1.52,.34-1.72-1.46-1.49-3.36-.25-3.26,1.48,.28,4.99,9.48,4.08,8.99-1.95-.35-4.31-6.61-6.54-10.93-3.64-10.49,7.04,.99,22.17,13.2,17.63Z"/><path class="tarjeta-cls-2" d="M466.94,30.76c-5.4,1.51-10.14-1.13-11.1-4.57-1.01-3.62,2.01-5.25,3.66-4.95,3.7,.68-3.9,5.33-.12,8.46,1.65,1.37,4.57,1.36,5.86-.26,.25,.6,.58,.91,1.71,1.32Z"/><g><path class="tarjeta-cls-2" d="M551.12,50.32c-2.45,3.97-5.29,10.05-.53,12.67,2.81,1.55,5.94,.12,7.15-1.97,1.21-2.07,.14-4.35-2.38-4.78,.03,3.53-3.57,3.97-5.19,1.52-1.65-2.48,.96-7.44,.96-7.44Z"/><path class="tarjeta-cls-2" d="M555.48,52.77c2.91,.91,3.54-3.15,.08-2.8-.81,.08-1.81-.84-1.87-1.78,0,0-.87,3.74,1.79,4.57Z"/></g><g><path class="tarjeta-cls-2" d="M547.01,46.58c-4.36,2.23-11.05,4.81-13.94,.48-1.7-2.56-.13-5.4,2.16-6.5,2.29-1.1,4.79-.13,5.26,2.17-3.88-.03-4.37,3.25-1.68,4.72,2.73,1.5,8.19-.87,8.19-.87Z"/><path class="tarjeta-cls-2" d="M544.3,42.61c-1-2.65,3.46-3.22,3.08-.07-.09,.73,.92,1.65,1.95,1.7,0,0-4.12,.8-5.03-1.62Z"/></g></g><g><g><g><g><path class="tarjeta-cls-2" d="M25.04,62.78c-1.53,4.66,.43,8.74,4.21,12.84,6.96,7.55,2.98,14.57-2.99,15.06-4.32,.35-8.86-2.65-8.12-7.05,.98-5.86,9.09-4.81,8.56,.12-.19,1.77-1.85,2.67-3.16,2.21-1.98-.69-.84-3.24,.61-2.7,.75,.28,.29,1.14-.65,.84-.47,.28-.24,.96,.51,1.19,1.01,.31,2.15-.42,2.33-1.67,.53-3.64-6.9-5.04-7.91-.05-.7,3.46,3.01,6.15,7.35,5.55,4.11-.57,8.94-6.07,2.36-13.55-4.26-4.83-4.57-9.49-3.1-12.8Z"/><path class="tarjeta-cls-2" d="M36.34,41.6c.29-5.03-2.4-9.29-7.32-10.86-3.85-1.22-8.74,.47-10.33,4.21-2.45,5.77,3.35,10.99,7.84,7.05,.98-.86,.14-2.68-1.79-3.5-2.57-1.09-5.11-1.63-2.71-4.26,3.59-3.93,13.65-2.08,14.31,7.37Z"/><path class="tarjeta-cls-2" d="M36.94,38.76c1.46,4.36,.59,10.32-4.27,14.5-2.23,1.91-4.93,2.63-6.58,4.43-2.69,2.94-.43,5.2-4.94,8.02,1.87-3.26-1.97-6.15-.67-9.28,1.77-4.26,7.41-1.91,8.57-4.5-2.45,1.19-6.18,.13-6.48-2.55-.27-2.49,2.35-4.32,4.35-3.54-.55,.24-1.13,1.24-.91,2.01,.68,2.49,4.38,2.46,7.29,.73,2.54-1.51,5.01-4.82,3.64-9.8Z"/><path class="tarjeta-cls-2" d="M38.41,43.5c.21,4.44-1.67,9.52-6.4,12.65-6.44,4.26-7.88,9.4-5.14,13.77,4.46,7.13,14.66,5.2,15.97-1.36,.59-2.97-1.96-5.84-5.26-5.75-3.98,.1-5.5,4.34-2.66,6.13,3.21,2.02,5.45-2.5,2.45-2.64-1.69-.07-.42,1.17-.61,1.74-.63-.03-1.94-.76-1.7-2.17,.54-3.13,6.36-2.43,5.49,2.28-.83,4.49-8.75,6.56-12.47,1.92-3.02-3.76-.68-10.67,6.99-10.51-1.09-5.26,4.65-7.43,3.34-16.06Z"/></g><g><path class="tarjeta-cls-2" d="M65.7,25.8c5.13-1.4,9.61,.39,14.12,3.83,8.3,6.33,16.03,2.71,16.56-2.72,.38-3.93-2.91-8.06-7.76-7.38-6.45,.89-5.28,8.26,.13,7.78,1.95-.17,2.94-1.68,2.43-2.88-.76-1.8-3.57-.77-2.97,.56,.31,.68,1.26,.27,.94-.58,.31-.44,1.05-.22,1.32,.46,.34,.91-.47,1.95-1.85,2.11-3.99,.49-5.54-6.27-.05-7.19,3.81-.64,6.77,2.74,6.1,6.68-.63,3.73-6.68,8.13-14.9,2.14-5.31-3.87-10.44-4.15-14.08-2.82Z"/><path class="tarjeta-cls-2" d="M42.4,36.08c-5.53,.26-10.21-2.18-11.94-6.65-1.34-3.5,.52-7.95,4.63-9.39,6.34-2.23,12.08,3.05,7.75,7.12-.95,.89-2.94,.13-3.85-1.63-1.19-2.34-1.8-4.65-4.69-2.46-4.33,3.26-2.29,12.41,8.1,13.01Z"/><path class="tarjeta-cls-2" d="M39.28,36.63c4.8,1.33,11.34,.53,15.95-3.89,2.1-2.02,2.89-4.48,4.87-5.98,3.23-2.45,5.72-.39,8.82-4.49-3.58,1.7-6.77-1.79-10.2-.61-4.68,1.61-2.1,6.74-4.95,7.79,1.3-2.23,.14-5.62-2.81-5.89-2.73-.25-4.75,2.14-3.9,3.96,.27-.5,1.37-1.03,2.21-.84,2.74,.62,2.71,3.98,.8,6.63-1.65,2.31-5.31,4.56-10.78,3.31Z"/><path class="tarjeta-cls-2" d="M44.5,37.97c4.88,.19,10.47-1.52,13.92-5.83,4.69-5.85,10.34-7.16,15.14-4.68,7.84,4.06,5.72,13.34-1.49,14.53-3.27,.54-6.42-1.79-6.32-4.77,.11-3.62,4.77-5,6.73-2.42,2.23,2.92-2.74,4.95-2.9,2.23-.08-1.54,1.29-.39,1.92-.56-.03-.58-.83-1.76-2.38-1.54-3.45,.49-2.68,5.78,2.51,4.99,4.94-.75,7.21-7.95,2.11-11.34-4.14-2.74-11.73-.62-11.56,6.35-5.79-.99-8.18,4.22-17.67,3.04Z"/></g></g><path class="tarjeta-cls-2" d="M29.77,30.11c-1.82-3.6,.25-6.99-2.15-8.54-1.75-1.12-3.38,.17-5.08-.15-.98-.18-1.29-1.17-.72-1.71-.91-.06-1.75,1.12-1.09,2.18h0c-1.16-.6-2.45,.17-2.39,.99,.59-.52,1.68-.24,1.88,.66,.35,1.55-1.07,3.03,.17,4.62,1.7,2.18,5.43,.3,9.39,1.96Zm-7.14-3.59c-.94-1.24,.11-2.2-1.07-3.86h0c1.84,1.07,2.89,.1,4.25,.97,2.15,1.36,1.16,3.72,3.94,6.48-3.04-2.53-5.64-1.63-7.13-3.58Z"/></g><path class="tarjeta-cls-2" d="M43.21,44.91c.58,.69,2.03,1.17,3.08,.21,1.05-.94,.51-2.27-.24-2.8,2.82-.55,2.03-3.65-1.01-3.9-2.63-.22-6.02-.31-9.36-2.95,2.9,3.04,2.99,6.13,3.23,8.52,.28,2.75,3.68,3.47,4.3,.91Zm-3.13-2.93c-1.01-1.16-.72-2.67-2.91-5.15,2.72,2,4.38,1.73,5.66,2.65,1.12,.8,.87,1.97,.16,2.64-.74,.65-2.02,.87-2.9-.14Z"/><path class="tarjeta-cls-2" d="M24.98,95.88c2.77-1.11,4.87,5.54-1.53,6.68-4.93,.87-8.49-5.33-3.24-8.77,6.07-3.97,14.41,1.82,17.34,7.83,2.32,4.77,1.55,6.42,1.03,9.23,.52-3.6,.49-5.34-1.46-9.17-3.66-7.16-12.46-9.85-15.84-5.94-1.61,1.86-1.22,4.43,1,5.13,2.22,.7,4.49-.86,4.14-3.05-2.1,.52-2.99-1.31-1.43-1.93Z"/><path class="tarjeta-cls-2" d="M39.61,104.44c6.97,11.8-13.45,25.55-21.5,12.6-3.25-5.22,1.06-11.97,7.87-11.28,7.98,.81,7.7,11.54-.22,10.88-5.32-.44-5.75-7.82-.34-7.43,1.75,.13,1.9,2.03,1.21,2.81-.69,.78-1.67-.19-1.89-.31-1.63,1.33-.27,3.05,1.63,2.96,5.49-.25,4.49-8.61-2.14-8.18-4.74,.32-7.2,6.01-4.01,9.94,7.74,9.54,24.38-.9,19.4-12Z"/><path class="tarjeta-cls-2" d="M30.49,123.11c1.66,4.91-1.25,9.22-5.03,10.09-3.98,.92-5.77-1.83-5.44-3.32,.74-3.37,5.86,3.55,9.3,.11,1.51-1.5,1.5-4.15-.29-5.33,.67-.23,1-.53,1.45-1.55Z"/><path class="tarjeta-cls-2" d="M102.11,25.75c-1.22,2.52,6.09,4.43,7.35-1.4,.96-4.49-5.87-7.72-9.64-2.94-4.37,5.52,2,13.1,8.61,15.76,5.25,2.11,7.05,1.41,10.15,.94-3.95,.47-5.88,.45-10.09-1.33-7.87-3.33-10.84-11.33-6.53-14.41,2.05-1.47,4.87-1.11,5.65,.91,.77,2.01-.95,4.08-3.36,3.76,.58-1.91-1.44-2.72-2.13-1.3Z"/><path class="tarjeta-cls-2" d="M111.52,39.05c12.98,6.33,28.11-12.23,13.86-19.55-5.75-2.95-13.17,.96-12.41,7.16,.88,7.26,12.69,7,11.97-.2-.49-4.84-8.6-5.23-8.17-.32,.14,1.6,2.23,1.73,3.09,1.1,.86-.62-.21-1.52-.34-1.72,1.46-1.49,3.36-.25,3.26,1.48-.28,4.99-9.48,4.08-8.99-1.95,.35-4.31,6.61-6.54,10.93-3.64,10.49,7.04-.99,22.17-13.2,17.63Z"/><path class="tarjeta-cls-2" d="M132.06,30.76c5.4,1.51,10.14-1.13,11.1-4.57,1.01-3.62-2.01-5.25-3.66-4.95-3.7,.68,3.9,5.33,.12,8.46-1.65,1.37-4.57,1.36-5.86-.26-.25,.6-.58,.91-1.71,1.32Z"/><g><path class="tarjeta-cls-2" d="M47.88,50.32c2.45,3.97,5.29,10.05,.53,12.67-2.81,1.55-5.94,.12-7.15-1.97-1.21-2.07-.14-4.35,2.38-4.78-.03,3.53,3.57,3.97,5.19,1.52,1.65-2.48-.96-7.44-.96-7.44Z"/><path class="tarjeta-cls-2" d="M43.52,52.77c-2.91,.91-3.54-3.15-.08-2.8,.81,.08,1.81-.84,1.87-1.78,0,0,.87,3.74-1.79,4.57Z"/></g><g><path class="tarjeta-cls-2" d="M51.99,46.58c4.36,2.23,11.05,4.81,13.94,.48,1.7-2.56,.13-5.4-2.16-6.5-2.29-1.1-4.79-.13-5.26,2.17,3.88-.03,4.37,3.25,1.68,4.72-2.73,1.5-8.19-.87-8.19-.87Z"/><path class="tarjeta-cls-2" d="M54.7,42.61c1-2.65-3.46-3.22-3.08-.07,.09,.73-.92,1.65-1.95,1.7,0,0,4.12,.8,5.03-1.62Z"/></g></g></g></g><g><g><g><g><path class="tarjeta-cls-2" d="M575.81,201.18c-.95,.83-.87,2.68-1.21,2.68s-.27-1.85-1.22-2.68c-1.01-.89-1.8-.9-1.8-1.18s.79-.29,1.8-1.18c.94-.83,.87-2.69,1.22-2.69,.34,0,.27,1.85,1.21,2.69,1.01,.89,1.8,.9,1.8,1.18s-.78,.29-1.8,1.18Z"/><path class="tarjeta-cls-2" d="M575.54,206.44c-.42,.48-1.19,.55-1.71,.16-.53-.38-.61-1.08-.19-1.56,.42-.48,1.19-.55,1.71-.17,.52,.39,.61,1.08,.18,1.56Z"/><path class="tarjeta-cls-2" d="M575.54,194.95c-.42,.48-1.19,.55-1.71,.17-.53-.38-.61-1.08-.19-1.56,.42-.47,1.19-.55,1.71-.16,.52,.38,.61,1.08,.18,1.56Z"/><path class="tarjeta-cls-2" d="M575.36,192.24c-.34,.39-.97,.45-1.39,.14-.43-.32-.5-.89-.15-1.27,.34-.39,.97-.45,1.4-.14,.43,.32,.49,.89,.15,1.27Z"/><path class="tarjeta-cls-2" d="M575.19,189.84c-.26,.3-.75,.35-1.08,.11-.34-.24-.39-.68-.12-.99,.27-.3,.75-.35,1.08-.11,.33,.24,.39,.69,.12,.99Z"/><path class="tarjeta-cls-2" d="M575.36,208.9c-.34,.39-.97,.45-1.39,.14-.43-.32-.5-.88-.15-1.27,.34-.39,.97-.45,1.4-.14,.43,.32,.49,.88,.15,1.27Z"/><path class="tarjeta-cls-2" d="M575.19,211.04c-.26,.3-.75,.35-1.08,.1-.34-.24-.39-.68-.12-.99,.27-.3,.75-.35,1.08-.11,.33,.24,.39,.69,.12,.99Z"/></g><rect class="tarjeta-cls-2" x="574.16" y="135.61" width=".86" height="53.25"/><rect class="tarjeta-cls-2" x="574.16" y="211.15" width=".86" height="53.25"/></g><g><path class="tarjeta-cls-2" d="M573.99,263.98c-.27,.3-.22,.74,.12,.99,.33,.24,.82,.2,1.08-.1,.27-.3,.22-.75-.12-.99-.33-.24-.82-.19-1.08,.11Z"/><path class="tarjeta-cls-2" d="M575.19,136.02c.27-.3,.22-.75-.12-.99-.33-.24-.82-.19-1.08,.11-.27,.3-.22,.74,.12,.99,.33,.24,.82,.2,1.08-.1Z"/></g></g><g><g><g><path class="tarjeta-cls-2" d="M25.63,201.18c-.95,.83-.87,2.68-1.21,2.68s-.27-1.85-1.22-2.68c-1.01-.89-1.8-.9-1.8-1.18s.79-.29,1.8-1.18c.94-.83,.87-2.69,1.22-2.69,.34,0,.27,1.85,1.21,2.69,1.01,.89,1.8,.9,1.8,1.18s-.78,.29-1.8,1.18Z"/><path class="tarjeta-cls-2" d="M25.36,206.44c-.42,.48-1.19,.55-1.71,.16-.53-.38-.61-1.08-.19-1.56,.42-.48,1.19-.55,1.71-.17,.52,.39,.61,1.08,.18,1.56Z"/><path class="tarjeta-cls-2" d="M25.36,194.95c-.42,.48-1.19,.55-1.71,.17-.53-.38-.61-1.08-.19-1.56,.42-.47,1.19-.55,1.71-.16,.52,.38,.61,1.08,.18,1.56Z"/><path class="tarjeta-cls-2" d="M25.18,192.24c-.34,.39-.97,.45-1.39,.14-.43-.32-.5-.89-.15-1.27,.34-.39,.97-.45,1.4-.14,.43,.32,.49,.89,.15,1.27Z"/><path class="tarjeta-cls-2" d="M25.01,189.84c-.26,.3-.75,.35-1.08,.11-.34-.24-.39-.68-.12-.99,.27-.3,.75-.35,1.08-.11,.33,.24,.39,.69,.12,.99Z"/><path class="tarjeta-cls-2" d="M25.18,208.9c-.34,.39-.97,.45-1.39,.14-.43-.32-.5-.88-.15-1.27,.34-.39,.97-.45,1.4-.14,.43,.32,.49,.88,.15,1.27Z"/><path class="tarjeta-cls-2" d="M25.01,211.04c-.26,.3-.75,.35-1.08,.1-.34-.24-.39-.68-.12-.99,.27-.3,.75-.35,1.08-.11,.33,.24,.39,.69,.12,.99Z"/></g><rect class="tarjeta-cls-2" x="23.98" y="135.61" width=".86" height="53.25"/><rect class="tarjeta-cls-2" x="23.98" y="211.15" width=".86" height="53.25"/></g><g><path class="tarjeta-cls-2" d="M23.81,263.98c-.27,.3-.22,.74,.12,.99,.33,.24,.82,.2,1.08-.1,.27-.3,.22-.75-.12-.99-.33-.24-.82-.19-1.08,.11Z"/><path class="tarjeta-cls-2" d="M25.01,136.02c.27-.3,.22-.75-.12-.99-.33-.24-.82-.19-1.08,.11-.27,.3-.22,.74,.12,.99,.33,.24,.82,.2,1.08-.1Z"/></g></g></g><g><g><g><g><path class="tarjeta-cls-2" d="M298.2,375.6c-.91-.86-2.95-.79-2.95-1.1s2.04-.25,2.95-1.11c.98-.92,.99-1.64,1.3-1.64s.32,.71,1.3,1.64c.92,.86,2.96,.79,2.96,1.11,0,.31-2.04,.24-2.96,1.1-.97,.92-.99,1.63-1.3,1.63s-.32-.71-1.3-1.63Z"/><path class="tarjeta-cls-2" d="M292.41,375.36c-.52-.38-.6-1.08-.18-1.56,.42-.48,1.19-.55,1.71-.17,.53,.38,.61,1.08,.18,1.56-.43,.48-1.19,.55-1.72,.17Z"/><path class="tarjeta-cls-2" d="M305.05,375.36c-.52-.38-.61-1.08-.18-1.56,.42-.48,1.19-.55,1.72-.17,.52,.38,.6,1.08,.18,1.56-.42,.48-1.19,.55-1.71,.17Z"/><path class="tarjeta-cls-2" d="M308.04,375.2c-.43-.31-.49-.88-.15-1.27,.35-.39,.98-.45,1.4-.14,.43,.31,.5,.88,.15,1.27-.35,.39-.97,.45-1.4,.13Z"/><path class="tarjeta-cls-2" d="M310.67,375.04c-.33-.24-.38-.68-.12-.98,.27-.31,.75-.35,1.09-.11,.33,.24,.39,.68,.12,.98-.27,.3-.76,.35-1.09,.1Z"/><path class="tarjeta-cls-2" d="M289.71,375.2c-.43-.31-.49-.88-.15-1.27,.35-.39,.97-.45,1.4-.14,.43,.31,.49,.88,.15,1.27-.35,.39-.97,.45-1.4,.13Z"/><path class="tarjeta-cls-2" d="M287.35,375.04c-.33-.24-.38-.68-.11-.98,.27-.31,.75-.35,1.09-.11,.33,.24,.39,.68,.12,.98-.27,.3-.76,.35-1.09,.1Z"/></g><rect class="tarjeta-cls-2" x="311.76" y="374.11" width="141.75" height=".78"/><rect class="tarjeta-cls-2" x="145.49" y="374.11" width="141.75" height=".78"/></g><g><path class="tarjeta-cls-2" d="M145.94,373.95c-.33-.24-.82-.2-1.09,.11-.27,.3-.22,.74,.11,.98,.33,.25,.82,.2,1.09-.1,.27-.3,.21-.74-.12-.98Z"/><path class="tarjeta-cls-2" d="M453.05,375.04c.33,.25,.82,.2,1.09-.1,.27-.3,.21-.74-.12-.98-.33-.24-.82-.2-1.09,.11-.27,.3-.22,.74,.11,.98Z"/></g></g><g><g><g><path class="tarjeta-cls-2" d="M298.2,26.61c-.91-.86-2.95-.79-2.95-1.1s2.04-.25,2.95-1.11c.98-.92,.99-1.64,1.3-1.64s.32,.71,1.3,1.64c.92,.86,2.96,.79,2.96,1.11,0,.31-2.04,.24-2.96,1.1-.97,.92-.99,1.63-1.3,1.63s-.32-.71-1.3-1.63Z"/><path class="tarjeta-cls-2" d="M292.41,26.36c-.52-.38-.6-1.08-.18-1.56,.42-.48,1.19-.55,1.71-.17,.53,.38,.61,1.08,.18,1.56-.43,.48-1.19,.55-1.72,.17Z"/><path class="tarjeta-cls-2" d="M305.05,26.36c-.52-.38-.61-1.08-.18-1.56,.42-.48,1.19-.55,1.72-.17,.52,.38,.6,1.08,.18,1.56-.42,.48-1.19,.55-1.71,.17Z"/><path class="tarjeta-cls-2" d="M308.04,26.2c-.43-.31-.49-.88-.15-1.27,.35-.39,.98-.45,1.4-.14,.43,.31,.5,.88,.15,1.27-.35,.39-.97,.45-1.4,.13Z"/><path class="tarjeta-cls-2" d="M310.67,26.05c-.33-.24-.38-.68-.12-.98,.27-.31,.75-.35,1.09-.11,.33,.24,.39,.68,.12,.98-.27,.3-.76,.35-1.09,.1Z"/><path class="tarjeta-cls-2" d="M289.71,26.2c-.43-.31-.49-.88-.15-1.27,.35-.39,.97-.45,1.4-.14,.43,.31,.49,.88,.15,1.27-.35,.39-.97,.45-1.4,.13Z"/><path class="tarjeta-cls-2" d="M287.35,26.05c-.33-.24-.38-.68-.11-.98,.27-.31,.75-.35,1.09-.11,.33,.24,.39,.68,.12,.98-.27,.3-.76,.35-1.09,.1Z"/></g><rect class="tarjeta-cls-2" x="311.76" y="25.11" width="141.75" height=".78"/><rect class="tarjeta-cls-2" x="145.49" y="25.11" width="141.75" height=".78"/></g><g><path class="tarjeta-cls-2" d="M145.94,24.96c-.33-.24-.82-.2-1.09,.11-.27,.3-.22,.74,.11,.98,.33,.25,.82,.2,1.09-.1,.27-.3,.21-.74-.12-.98Z"/><path class="tarjeta-cls-2" d="M453.05,26.05c.33,.25,.82,.2,1.09-.1,.27-.3,.21-.74-.12-.98-.33-.24-.82-.2-1.09,.11-.27,.3-.22,.74,.11,.98Z"/></g></g></g></g><path class="tarjeta-cls-2" d="M32.33,262.27c5.02,1.82,7.11,8.18,6.13,11.93,13.89,7.73,10.48,26.7-.27,34.75,2.51,2.01,3.94,6.52,1.88,10.59,5.17,1.63,9.13,5.63,10.14,10.69,0,.01,0,.03,0,.04,5.13,1.01,10.09,6.23,7.98,13.75,8.51-1.53,14.25,3.58,15.15,7.28,.02,0,.03,0,.05,0,5.56,.91,9.96,4.42,11.76,9.2,4.06-1.44,8.42-.58,11.61,1.73,14.07-13.61,31.97-9.22,38.28-.25,5.25,.03,9.75,1.95,12.8,5.31h151.66s151.66,0,151.66,0c3.05-3.36,7.55-5.27,12.8-5.31,6.31-8.97,24.21-13.36,38.28,.25,3.19-2.31,7.54-3.17,11.61-1.73,1.8-4.78,6.2-8.29,11.76-9.2,.02,0,.03,0,.05,0,.9-3.7,6.64-8.82,15.15-7.28-2.11-7.51,2.86-12.73,7.98-13.75,0-.01,0-.03,0-.04,1.01-5.06,4.97-9.06,10.14-10.69-2.06-4.07-.63-8.58,1.88-10.59-10.76-8.05-14.17-27.03-.27-34.75-.98-3.75,1.12-10.11,6.13-11.93v-62.27s0-62.27,0-62.27c-5.02-1.82-7.11-8.18-6.13-11.93-13.89-7.73-10.48-26.7,.27-34.75-2.51-2.01-3.94-6.52-1.88-10.59-5.17-1.63-9.13-5.63-10.14-10.69,0-.01,0-.03,0-.04-5.13-1.01-10.09-6.23-7.98-13.75-8.51,1.53-14.25-3.58-15.15-7.28-.02,0-.03,0-.05,0-5.56-.91-9.96-4.42-11.76-9.2-4.06,1.44-8.42,.58-11.61-1.73-14.07,13.61-31.97,9.22-38.28,.25-5.25-.03-9.75-1.95-12.8-5.31h-151.66s-151.66,0-151.66,0c-3.05,3.36-7.55,5.27-12.8,5.31-6.31,8.97-24.21,13.36-38.28-.25-3.19,2.31-7.54,3.17-11.61,1.73-1.8,4.78-6.2,8.29-11.76,9.2-.02,0-.03,0-.05,0-.9,3.7-6.64,8.82-15.15,7.28,2.11,7.51-2.85,12.73-7.98,13.75,0,.01,0,.03,0,.04-1.01,5.06-4.97,9.06-10.14,10.69,2.06,4.07,.63,8.58-1.88,10.59,10.76,8.05,14.17,27.03,.27,34.75,.98,3.75-1.12,10.11-6.13,11.93v62.27s0,62.27,0,62.27Zm.94-123.98c4.9-2.18,6.88-8.24,6.24-12.07,13.5-8.05,10.54-26.6,.05-35.22,2.14-2.29,3.23-6.29,1.74-10.05,4.95-1.87,8.59-5.81,9.72-10.53,5.5-1.41,9.66-6.74,8.38-13.41,7.63,.8,13.28-3.54,14.7-7.58,5.34-1.05,9.58-4.3,11.61-8.86,3.76,1.04,7.76,.34,10.95-1.67,14.24,13.2,32.15,8.95,38.89-.04,5.07-.12,9.6-2.03,12.65-5.3H450.8c3.05,3.27,7.58,5.18,12.65,5.3,6.74,8.99,24.65,13.24,38.89,.04,3.19,2.02,7.19,2.72,10.95,1.67,2.03,4.56,6.28,7.81,11.61,8.86,1.42,4.04,7.07,8.38,14.7,7.58-1.27,6.66,2.88,12,8.38,13.41,1.13,4.72,4.78,8.66,9.72,10.53-1.49,3.76-.4,7.77,1.74,10.05-10.49,8.62-13.45,27.17,.05,35.22-.64,3.83,1.33,9.9,6.24,12.07v123.43c-4.9,2.18-6.88,8.24-6.24,12.07-13.5,8.05-10.54,26.6-.05,35.22-2.14,2.29-3.23,6.29-1.74,10.05-4.95,1.87-8.59,5.81-9.72,10.53-5.5,1.41-9.66,6.74-8.38,13.41-7.62-.8-13.28,3.54-14.7,7.58-5.34,1.05-9.58,4.3-11.61,8.86-3.76-1.04-7.76-.34-10.95,1.67-14.24-13.2-32.15-8.95-38.89,.04-5.07,.12-9.6,2.03-12.65,5.3H148.2c-3.05-3.27-7.58-5.18-12.65-5.3-6.74-8.99-24.65-13.24-38.89-.04-3.19-2.02-7.19-2.72-10.95-1.67-2.03-4.56-6.28-7.81-11.61-8.86-1.42-4.04-7.07-8.38-14.7-7.58,1.27-6.66-2.88-12-8.38-13.41-1.13-4.72-4.78-8.66-9.72-10.53,1.49-3.76,.4-7.77-1.74-10.05,10.49-8.62,13.45-27.17-.05-35.22,.64-3.83-1.33-9.9-6.24-12.07v-123.43Z"/></g><rect class="tarjeta-cls-3" x="241" y="349.5" width="118" height="36"/><g><path class="tarjeta-cls-1" d="M270.68,368.54c.34-.31,.52-.68,.54-1.13-.03-1.56-.32-2.98-.88-4.25-.56-1.27-1.31-2.36-2.24-3.27-.94-.91-2-1.6-3.18-2.07-1.19-.47-2.44-.71-3.75-.71-1.73,0-3.36,.45-4.9,1.36-1.54,.91-2.78,2.22-3.75,3.94-.96,1.72-1.44,3.79-1.44,6.22,0,2.18,.46,4.1,1.38,5.76,.92,1.66,2.22,2.97,3.89,3.92,1.68,.95,3.63,1.42,5.86,1.42,1.54,0,2.97-.33,4.29-.98,1.33-.66,2.39-1.42,3.2-2.28,.45-.36,.67-.78,.67-1.26,0-.39-.14-.73-.42-1-.28-.28-.61-.42-1.01-.42-.36,0-.73,.13-1.09,.38-.36,.39-.8,.78-1.32,1.15-.52,.38-1.14,.69-1.86,.94-.73,.25-1.59,.38-2.6,.38-1.54,0-2.89-.36-4.06-1.07-1.17-.71-2.09-1.68-2.74-2.91-.57-1.06-.88-2.29-.95-3.64h15.17c.45,0,.84-.15,1.17-.46Zm-14.22-6.43c.66-.66,1.4-1.13,2.22-1.42,.82-.29,1.65-.44,2.49-.44,1.03,0,2.02,.22,2.97,.67,.95,.45,1.75,1.08,2.41,1.91,.66,.82,1.03,1.81,1.11,2.95v.34h-13.16c.1-.53,.22-1.02,.39-1.47,.39-1.03,.91-1.88,1.57-2.53Z"/><path class="tarjeta-cls-1" d="M314.4,357.74c.5,0,.91,.16,1.21,.48,.31,.32,.46,.72,.46,1.19v11.43c0,2.82-.79,5.01-2.37,6.55-1.58,1.55-3.78,2.32-6.6,2.32s-4.98-.78-6.55-2.32c-1.58-1.55-2.37-3.73-2.37-6.55v-11.43c0-.47,.16-.87,.48-1.19,.32-.32,.72-.48,1.19-.48,.5,0,.91,.16,1.21,.48,.31,.32,.46,.72,.46,1.19v11.43c0,1.9,.49,3.34,1.47,4.31,.98,.98,2.35,1.47,4.1,1.47s3.2-.49,4.17-1.47c.96-.98,1.44-2.42,1.44-4.31v-11.43c0-.47,.16-.87,.48-1.19,.32-.32,.72-.48,1.19-.48Z"/><path class="tarjeta-cls-1" d="M277.44,379.73c-.5,0-.91-.16-1.21-.48-.31-.32-.46-.72-.46-1.19v-11.43c0-2.82,.79-5.01,2.37-6.55,1.58-1.55,3.78-2.32,6.6-2.32s4.98,.78,6.55,2.32c1.58,1.55,2.37,3.73,2.37,6.55v11.43c0,.47-.16,.87-.48,1.19-.32,.32-.72,.48-1.19,.48-.5,0-.91-.16-1.21-.48-.31-.32-.46-.72-.46-1.19v-11.43c0-1.9-.49-3.34-1.47-4.31-.98-.98-2.35-1.47-4.1-1.47s-3.2,.49-4.17,1.47c-.96,.98-1.44,2.42-1.44,4.31v11.43c0,.47-.16,.87-.48,1.19-.32,.32-.72,.48-1.19,.48Z"/><path class="tarjeta-cls-1" d="M279.79,351.5h9.84c.45,0,.82,.15,1.11,.46,.29,.31,.44,.67,.44,1.09,0,.45-.15,.82-.44,1.11-.29,.29-.66,.44-1.11,.44h-9.84c-.42,0-.78-.15-1.09-.46-.31-.31-.46-.68-.46-1.13,0-.42,.15-.78,.46-1.07,.31-.29,.67-.44,1.09-.44Z"/><path class="tarjeta-cls-1" d="M331.79,376.9c-.23-.27-.49-.4-.76-.4s-.51,.05-.72,.15c-.21,.1-.45,.15-.72,.15-.3,0-.61-.06-.93-.19-.32-.13-.57-.36-.76-.69s-.29-.84-.29-1.51v-7.99c0,.48-.16,.88-.49,1.21-.33,.33-.73,.5-1.19,.5s-.85-.17-1.15-.5c-.3-.34-.45-.74-.45-1.21v8.15c0,1.28,.18,2.28,.56,2.99s.83,1.22,1.38,1.53c.55,.31,1.1,.49,1.67,.54,.56,.06,1.04,.08,1.42,.08,.71,0,1.36-.17,1.94-.52,.58-.35,.87-.77,.87-1.28,0-.42-.12-.76-.35-1.03Z"/><path class="tarjeta-cls-1" d="M333.12,359.09c-.29-.31-.66-.46-1.11-.46h-4.4v-4.45c0-.47-.15-.87-.45-1.19-.3-.32-.7-.48-1.19-.48-.47,0-.86,.16-1.17,.48-.32,.32-.47,.72-.47,1.19v4.45h-2.15c-.42,0-.78,.15-1.09,.44-.31,.29-.46,.65-.46,1.07,0,.45,.15,.82,.46,1.13,.31,.31,.67,.46,1.09,.46h2.15v4.69c0,.48,.15,.88,.45,1.21,.3,.33,.69,.5,1.15,.5s.86-.17,1.19-.5c.33-.34,.49-.74,.49-1.21v-4.69h4.4c.45,0,.82-.15,1.11-.44,.29-.29,.44-.66,.44-1.11,0-.42-.15-.78-.44-1.09Z"/><path class="tarjeta-cls-1" d="M347.14,376.9c-.23-.27-.49-.4-.76-.4s-.51,.05-.72,.15c-.21,.1-.45,.15-.72,.15-.3,0-.61-.06-.93-.19-.32-.13-.57-.36-.76-.69s-.29-.84-.29-1.51v-7.99c0,.48-.16,.88-.49,1.21-.33,.33-.73,.5-1.19,.5s-.85-.17-1.15-.5c-.3-.34-.45-.74-.45-1.21v8.15c0,1.28,.18,2.28,.56,2.99s.83,1.22,1.38,1.53c.55,.31,1.1,.49,1.67,.54,.56,.06,1.04,.08,1.42,.08,.71,0,1.36-.17,1.94-.52,.58-.35,.87-.77,.87-1.28,0-.42-.12-.76-.35-1.03Z"/><path class="tarjeta-cls-1" d="M348.48,359.09c-.29-.31-.66-.46-1.11-.46h-4.4v-4.45c0-.47-.15-.87-.45-1.19-.3-.32-.7-.48-1.19-.48-.47,0-.86,.16-1.17,.48-.32,.32-.47,.72-.47,1.19v4.45h-2.15c-.42,0-.78,.15-1.09,.44-.31,.29-.46,.65-.46,1.07,0,.45,.15,.82,.46,1.13,.31,.31,.67,.46,1.09,.46h2.15v4.69c0,.48,.15,.88,.45,1.21,.3,.33,.69,.5,1.15,.5s.86-.17,1.19-.5c.33-.34,.49-.74,.49-1.21v-4.69h4.4c.45,0,.82-.15,1.11-.44,.29-.29,.44-.66,.44-1.11,0-.42-.15-.78-.44-1.09Z"/></g></svg>