<?xml version="1.0" encoding="UTF-8"?><svg id="Layer_1" xmlns="http://www.w3.org/2000/svg" viewBox="0 0 197 273"><defs><style>.tobogan-cls-1,.tobogan-cls-2{fill:#d8a72b;}.tobogan-cls-3{fill:none;stroke:#000;stroke-miterlimit:10;stroke-width:2px;}.tobogan-cls-2{fill-rule:evenodd;}</style></defs><g><path class="tobogan-cls-2" d="M174.67,11.4c-4.54-9.17-62.67,23.6-79.72,107.43-14.06,69.14-27.63,126.84-83.59,104.9,3.75,11.35,22.95,32.78,34.18,36.82,12.92,4.64,35.12,2.02,48.23-13.37,13.11-15.38,30.2-89.52,44.95-110.2,14.75-20.68,34.42-18.66,34.42-18.66,0,0,2.45-71.36,1.52-106.92Z"/><path d="M58.5,265.71c-5.06,0-9.85-.77-13.99-2.25-12.5-4.49-32.17-26.93-36.08-38.76l-2.06-6.25,6.13,2.4c15.36,6.02,27.88,6.08,38.27,.17,23.54-13.39,33.68-57.27,41.14-102.69,6.89-42,25.75-68.49,40.36-83.33,17.99-18.27,25.74-21.99,33.74-24.99,6.9-2.59,10.42-2.04,11.44,.02l.3,.61,.02,.68c.94,35.52,.06,102.72,.24,106.69l-.41,3.67-4.75-.28c-.72-.07-18.14-1.47-31.59,17.38-7.07,9.92-14.95,33.32-22.57,55.96-8.01,23.79-15.57,46.27-22.55,54.45-9.67,11.35-24.53,16.52-37.64,16.52Zm-41.16-36.67c6.7,11.18,21.02,25.64,29.26,28.6,10.88,3.9,31.98,2.62,44.83-12.46,6.2-7.27,13.92-30.22,21.39-52.41,7.76-23.06,15.79-46.91,23.4-57.58,12.42-17.42,30.11-19.8,36.44-20,1.34-13.18,.34-71.18,.34-102.18-1,0,1.59-.71-7,3-14.13,6.1-25,16-37.4,32.36-15.1,19.92-26.05,43.28-30.59,70.97-8.9,54.24-19.83,93.21-44.18,107.07-10.25,5.83-22.5,6.71-36.49,2.64Z"/></g><path d="M141.68,134.68l36.32,1.32v32s-17.98-6-21.98-8-20.45-8.22-22.22-9.11,7.88-16.21,7.88-16.21Z"/><path class="tobogan-cls-1" d="M137,147c1,0,36,14,36,14v-21l-31-1-5,8Z"/><path class="tobogan-cls-3" d="M24.5,240.5c12.5,4.5,44.42-.94,60-31,14-27,22.39-84.57,27-102,9-34,36.92-72.79,63-82"/></svg>